<?xml version="1.0" encoding="utf-8"?>
<!-- Generator: Adobe Illustrator 16.0.0, SVG Export Plug-In . SVG Version: 6.00 Build 0)  -->
<!DOCTYPE svg PUBLIC "-//W3C//DTD SVG 1.1//EN" "http://www.w3.org/Graphics/SVG/1.1/DTD/svg11.dtd">
<svg version="1.1" id="Layer_1" xmlns="http://www.w3.org/2000/svg" xmlns:xlink="http://www.w3.org/1999/xlink" x="0px" y="0px"
	 width="28.892px" height="29.062px" viewBox="0 0 28.892 29.062" enable-background="new 0 0 28.892 29.062" xml:space="preserve">
<path fill-rule="evenodd" clip-rule="evenodd" fill="#EC2024" d="M22.411,24.017v-0.035V24.017 M23.845,22.413l0.068,0.104
	l0.102-0.104c1.875-2.251,2.9-5.049,2.865-7.983c0.035-2.286-0.579-4.469-1.739-6.379c-0.512-0.887-1.159-1.706-1.91-2.422
	c-2.321-2.388-5.46-3.685-8.803-3.65c-2.932-0.034-5.73,0.989-7.948,2.866v0.034c0-0.034,0-0.034,0,0V4.844L6.379,4.946L6.48,5.049
	L23.845,22.413z M14.428,26.881c2.969,0,5.766-1.022,7.982-2.864l0.104-0.104l-0.104-0.068L5.048,6.447L4.946,6.379L4.878,6.481
	c-1.877,2.218-2.9,5.015-2.9,7.948C1.978,21.288,7.573,26.881,14.428,26.881C14.463,26.881,14.463,26.881,14.428,26.881
	 M14.428,28.894c-3.819,0-7.469-1.501-10.199-4.229C1.5,21.935,0,18.32,0,14.464c0-3.991,1.637-7.607,4.229-10.2
	c2.627-2.626,6.243-4.23,10.199-4.23V0v0.034c3.992,0,7.608,1.604,10.234,4.23c2.627,2.627,4.229,6.208,4.229,10.234
	c0,1.228-0.135,2.422-0.442,3.548c0,0.034,0,0.034-0.035,0.068c0,0,0,0.034,0,0.068c-0.647,2.422-1.908,4.639-3.752,6.481
	C21.933,27.393,18.319,28.894,14.428,28.894v0.035V28.894z"/>
</svg>
