<?xml version="1.0" encoding="utf-8"?>
<!-- Generator: Adobe Illustrator 15.0.0, SVG Export Plug-In . SVG Version: 6.00 Build 0)  -->
<!DOCTYPE svg PUBLIC "-//W3C//DTD SVG 1.0//EN" "http://www.w3.org/TR/2001/REC-SVG-20010904/DTD/svg10.dtd" [
	<!ENTITY st0 "fill:#E31837;">
]>
<svg version="1.0" id="Layer_1" xmlns="http://www.w3.org/2000/svg" xmlns:xlink="http://www.w3.org/1999/xlink" x="0px" y="0px"
	 width="72px" height="9.93px" viewBox="0 0 72 9.93" style="enable-background:new 0 0 72 9.93;" xml:space="preserve">
<g>
	<g>
		<path style="&st0;" d="M21.763,2.903h-5.305c-0.261,0-0.508,0.129-0.649,0.328l-0.897,1.311h5.347
			c0.337,0.021,0.604,0.303,0.604,0.646c0,0.004-0.001,2.507-0.001,2.507h-4.01c0,0,0-0.717,0-0.718s0-0.002,0-0.003
			c0-0.143,0.116-0.259,0.258-0.259h2.801V5.789c0-0.228-0.141-0.354-0.333-0.354h-3.886c-0.475,0-0.86,0.385-0.86,0.859v2.289
			c0,0.01,0.004,0.022,0.01,0.035c0.053,0.345,0.349,0.596,0.707,0.596h7.576V4.268C23.125,3.515,22.515,2.903,21.763,2.903"/>
		<path style="&st0;" d="M70.101,2.903h-5.306c-0.262,0-0.508,0.129-0.649,0.328L63.25,4.542h5.347
			c0.337,0.021,0.604,0.303,0.604,0.646c0,0.004-0.001,2.507-0.001,2.507h-4.01c0,0,0-0.717,0-0.718s0-0.002,0-0.003
			c0-0.143,0.116-0.259,0.258-0.259h2.801V5.789c0-0.228-0.14-0.354-0.333-0.354H64.03c-0.475,0-0.86,0.385-0.86,0.859v2.289
			c0,0.01,0.004,0.022,0.009,0.035c0.053,0.345,0.349,0.596,0.708,0.596h7.576V4.268C71.463,3.515,70.854,2.903,70.101,2.903"/>
		<path style="&st0;" d="M53.398,0.609v2.296v4.735H50.07c-0.23,0-0.391-0.205-0.391-0.373V5.189h0c0,0,0-0.001,0-0.002
			c0-0.356,0.289-0.645,0.646-0.645h1.683c0.252,0,0.509-0.144,0.615-0.319l0.775-1.318c0,0-4.664,0-4.667,0
			c-0.752,0-1.362,0.61-1.362,1.362c0,0.004,0,0.008,0,0.012s0,3.531,0,3.807c0,0.726,0.585,1.129,1.118,1.129h7.221V0.609H53.398z"
			/>
		<path style="&st0;" d="M58.169,2.904c-0.573,0-0.946,0.443-0.946,0.921v5.39h2.311V5.197c-0.001-0.361,0.256-0.661,0.622-0.661
			h1.709c0.249-0.016,0.465-0.16,0.596-0.355c0.007-0.01,0.896-1.276,0.896-1.276H58.169z"/>
		<path style="&st0;" d="M34.184,0.604h2.295v1.59l-2.295,1.523V0.604z M34.184,4.957v4.258h2.295V5.407v-2.43
			c0,0-1.064,0.663-1.818,1.133C34.374,4.294,34.184,4.604,34.184,4.957"/>
		<path style="&st0;" d="M11.792,0.608H0.753v8.606h2.292V2.617h2.451c0.234,0.004,0.419,0.194,0.419,0.43h0.001l0,6.168h2.295
			V3.047c0-0.237,0.193-0.43,0.43-0.43c0.001,0,0.002,0,0.004,0h1.806l0,0c0.347,0.001,0.63,0.281,0.63,0.63h0v5.968h2.292V2.191
			C13.375,1.318,12.667,0.608,11.792,0.608"/>
		<path style="&st0;" d="M44.513,2.905c-0.023,0-6.524,0.003-6.524,0.003v6.307h2.309V4.542h2.627c0.356,0,0.646,0.288,0.646,0.645
			l0,0c0,0,0.001,0,0.002,0v4.028h2.303V4.268C45.876,3.516,45.265,2.905,44.513,2.905"/>
		<path style="&st0;" d="M24.552,0.609h2.295v8.604h-2.295V0.609z M32.669,4.267c0-0.752-0.61-1.363-1.363-1.363
			c-0.006,0-0.021,0.001-0.021,0h-2.999c-0.269,0-0.399,0.137-0.54,0.344c-0.007,0.011-0.901,1.295-0.901,1.295h2.911
			c0.343,0.016,0.618,0.299,0.618,0.646c0,0.002-0.001,4.025-0.001,4.025h2.295c0,0,0-4.931,0-4.933
			C32.669,4.276,32.669,4.271,32.669,4.267"/>
	</g>
</g>
</svg>
