<?xml version="1.0" encoding="utf-8"?>
<!-- Generator: Adobe Illustrator 16.0.0, SVG Export Plug-In . SVG Version: 6.00 Build 0)  -->
<!DOCTYPE svg PUBLIC "-//W3C//DTD SVG 1.1//EN" "http://www.w3.org/Graphics/SVG/1.1/DTD/svg11.dtd">
<svg version="1.1" id="Art" xmlns="http://www.w3.org/2000/svg" xmlns:xlink="http://www.w3.org/1999/xlink" x="0px" y="0px"
	 width="206.321px" height="140.829px" viewBox="0 0 206.321 140.829" enable-background="new 0 0 206.321 140.829"
	 xml:space="preserve">
<rect x="23.96" y="16.406" fill="none" width="158.4" height="108.015"/>
<path fill="none" stroke="#000000" stroke-width="0.4" stroke-linecap="round" stroke-linejoin="round" d="M206.121,125.027
	c0,8.615-6.985,15.602-15.601,15.602H15.8c-8.616,0-15.6-6.986-15.6-15.602V15.8c0-8.615,6.983-15.6,15.6-15.6h174.721
	c8.615,0,15.601,6.984,15.601,15.6V125.027z"/>
<rect x="19.195" y="45.079" fill="#FFFFFF" width="98.88" height="50.204"/>
<path fill="#5C5D60" d="M19.741,49.81h36.96c0,0,1.001,0.182,1.001-1.001l-0.091-2.55c0,0,0.273-1.002-2.367-1.002l-34.593,0.456
	c0,0-1.274-0.182-1.274,1.274v2.458C19.377,49.445,19.377,49.81,19.741,49.81"/>
<g>
	<defs>
		<rect id="SVGID_1_" x="19.195" y="45.075" width="98.898" height="50.202"/>
	</defs>
	<clipPath id="SVGID_2_">
		<use xlink:href="#SVGID_1_"  overflow="visible"/>
	</clipPath>
	
		<path clip-path="url(#SVGID_2_)" fill="none" stroke="#000000" stroke-width="0.5" stroke-linecap="round" stroke-linejoin="round" d="
		M19.741,49.81h36.96c0,0,1.001,0.182,1.001-1.001l-0.091-2.55c0,0,0.273-1.002-2.367-1.002l-34.593,0.456
		c0,0-1.274-0.182-1.274,1.274v2.458C19.377,49.445,19.377,49.81,19.741,49.81z"/>
</g>
<path fill="#AFB1B4" d="M56.246,49.81v17.478c0,0,0.273,1.275-2.55,1.275c0,0-29.871,0.181-30.04,0.182
	c-2.375,0.015-2.134-2.111-2.192-3.759c-0.067-1.915-0.135-3.831-0.202-5.747c-0.103-2.894-0.204-6.517-0.307-9.429"/>
<path fill="none" stroke="#000000" stroke-width="0.5" stroke-linecap="round" stroke-linejoin="round" d="M56.246,49.81v17.478
	c0,0,0.273,1.275-2.55,1.275c0,0-29.871,0.181-30.04,0.182c-2.375,0.015-2.134-2.111-2.192-3.759
	c-0.067-1.915-0.135-3.831-0.202-5.747c-0.103-2.894-0.204-6.517-0.307-9.429"/>
<path fill="#AFB1B4" d="M33.306,68.686l0.182-3.765c0,0,1.184-1.092,1.184-3.095v-5.098c0,0,0.091-3.643,3.642-3.643h3.004
	c0,0,2.73,0.728,2.73,4.098v7.737c0,0,0.455,0.183,0.455,1.729"/>
<path fill="#FFFFFF" d="M23.292,68.744v12.107c0,0,0.819,3.277,4.097,3.277h5.917V68.686"/>
<path fill="none" stroke="#000000" stroke-width="0.5" stroke-linecap="round" stroke-linejoin="round" d="M23.292,68.744v12.107
	c0,0,0.819,3.277,4.097,3.277h5.917V68.686l0.182-3.765c0,0,1.184-1.092,1.184-3.095v-5.098c0,0,0.091-3.643,3.642-3.643h3.004
	c0,0,2.73,0.728,2.73,4.098v7.737c0,0,0.455,0.183,0.455,1.729"/>
<polyline fill="#FFFFFF" points="44.593,68.616 44.593,83.673 51.876,83.673 54.471,81.08 54.471,68.521 "/>
<polyline fill="none" stroke="#000000" stroke-width="0.5" stroke-linecap="round" stroke-linejoin="round" points="44.593,68.616 
	44.593,83.673 51.876,83.673 54.471,81.08 54.471,68.521 "/>
<line fill="#AFB1B4" x1="54.061" y1="51.538" x2="54.061" y2="65.559"/>
<line fill="none" stroke="#000000" stroke-width="0.5" stroke-linecap="round" stroke-linejoin="round" x1="54.061" y1="51.538" x2="54.061" y2="65.559"/>
<line fill="#AFB1B4" x1="23.019" y1="49.81" x2="23.019" y2="66.741"/>
<line fill="none" stroke="#000000" stroke-width="0.5" stroke-linecap="round" stroke-linejoin="round" x1="23.019" y1="49.81" x2="23.019" y2="66.741"/>
<path fill="#AFB1B4" d="M28.937,49.81v1.638c0,0,0,1.001,1.001,1.001c0,0,1.001-0.091,1.001,1.002v8.648
	c0,0-0.091,1.411,1.411,1.411l1.866-0.137"/>
<path fill="none" stroke="#000000" stroke-width="0.5" stroke-linecap="round" stroke-linejoin="round" d="M28.937,49.81v1.638
	c0,0,0,1.001,1.001,1.001c0,0,1.001-0.091,1.001,1.002v8.648c0,0-0.091,1.411,1.411,1.411l1.866-0.137"/>
<path fill="#AFB1B4" d="M44.047,63.373l1.275-0.091c0,0,0.864,0.364,0.864-0.865v-8.604c0,0-0.228-1.456,0.773-1.456
	c0,0,1.365,0.455,1.365-0.546V49.81"/>
<path fill="none" stroke="#000000" stroke-width="0.5" stroke-linecap="round" stroke-linejoin="round" d="M44.047,63.373
	l1.275-0.091c0,0,0.864,0.364,0.864-0.865v-8.604c0,0-0.228-1.456,0.773-1.456c0,0,1.365,0.455,1.365-0.546V49.81"/>
<path fill="#AFB1B4" d="M44.047,64.921c0,0-3.004,0.91-3.004-2.275v-5.644c0,0-1.82-4.099-4.096,0v6.189
	c0,0,0.767,1.472-1.366,2.003l-2.094-0.273"/>
<path fill="none" stroke="#000000" stroke-width="0.5" stroke-linecap="round" stroke-linejoin="round" d="M44.047,64.921
	c0,0-3.004,0.91-3.004-2.275v-5.644c0,0-1.82-4.099-4.096,0v6.189c0,0,0.767,1.472-1.366,2.003l-2.094-0.273"/>
<path fill="#5C5D60" d="M79.951,49.81h36.96c0,0,1.001,0.182,1.001-1.001l-0.091-2.55c0,0,0.272-1.002-2.368-1.002L80.86,45.713
	c0,0-1.273-0.182-1.273,1.274v2.458C79.587,49.445,79.587,49.81,79.951,49.81"/>
<g>
	<defs>
		<rect id="SVGID_3_" x="19.195" y="45.075" width="98.898" height="50.202"/>
	</defs>
	<clipPath id="SVGID_4_">
		<use xlink:href="#SVGID_3_"  overflow="visible"/>
	</clipPath>
	
		<path clip-path="url(#SVGID_4_)" fill="none" stroke="#000000" stroke-width="0.5" stroke-linecap="round" stroke-linejoin="round" d="
		M79.951,49.81h36.96c0,0,1.001,0.182,1.001-1.001l-0.091-2.55c0,0,0.272-1.002-2.368-1.002L80.86,45.713
		c0,0-1.273-0.182-1.273,1.274v2.458C79.587,49.445,79.587,49.81,79.951,49.81z"/>
</g>
<path fill="#AFB1B4" d="M116.455,49.81v17.478c0,0,0.274,1.275-2.548,1.275c0,0-29.874,0.181-30.042,0.182
	c-2.377,0.015-2.135-2.111-2.193-3.759c-0.068-1.915-0.135-3.831-0.201-5.747c-0.103-2.894-0.206-6.517-0.307-9.429"/>
<path fill="none" stroke="#000000" stroke-width="0.5" stroke-linecap="round" stroke-linejoin="round" d="M116.455,49.81v17.478
	c0,0,0.274,1.275-2.548,1.275c0,0-29.874,0.181-30.042,0.182c-2.377,0.015-2.135-2.111-2.193-3.759
	c-0.068-1.915-0.135-3.831-0.201-5.747c-0.103-2.894-0.206-6.517-0.307-9.429"/>
<polyline fill="#FFFFFF" points="104.801,68.616 104.801,83.673 112.087,83.673 114.679,81.08 114.679,68.521 "/>
<polyline fill="none" stroke="#000000" stroke-width="0.5" stroke-linecap="round" stroke-linejoin="round" points="104.801,68.616 
	104.801,83.673 112.087,83.673 114.679,81.08 114.679,68.521 "/>
<line fill="#AFB1B4" x1="114.271" y1="51.538" x2="114.271" y2="65.559"/>
<line fill="none" stroke="#000000" stroke-width="0.5" stroke-linecap="round" stroke-linejoin="round" x1="114.271" y1="51.538" x2="114.271" y2="65.559"/>
<line fill="#AFB1B4" x1="83.228" y1="49.81" x2="83.228" y2="66.741"/>
<line fill="none" stroke="#000000" stroke-width="0.5" stroke-linecap="round" stroke-linejoin="round" x1="83.228" y1="49.81" x2="83.228" y2="66.741"/>
<path fill="#AFB1B4" d="M89.145,49.81v1.638c0,0,0,1.001,1.003,1.001c0,0,1.001-0.091,1.001,1.002v8.648c0,0-0.092,1.411,1.41,1.411
	l1.867-0.137l0.146-3.732c0,0,1.32-1.638,2.321,0.501l-0.046,3.276c0,0-0.045,1.686-2.229,1.686l-1.639-0.091l-0.228,2.003"/>
<path fill="none" stroke="#000000" stroke-width="0.5" stroke-linecap="round" stroke-linejoin="round" d="M89.145,49.81v1.638
	c0,0,0,1.001,1.003,1.001c0,0,1.001-0.091,1.001,1.002v8.648c0,0-0.092,1.411,1.41,1.411l1.867-0.137l0.146-3.732
	c0,0,1.32-1.638,2.321,0.501l-0.046,3.276c0,0-0.045,1.686-2.229,1.686l-1.639-0.091l-0.228,2.003"/>
<polyline fill="#FFFFFF" points="92.979,68.689 92.659,83.947 86.104,83.947 83.238,81.08 83.238,68.683 "/>
<polyline fill="none" stroke="#000000" stroke-width="0.5" stroke-linecap="round" stroke-linejoin="round" points="92.979,68.689 
	92.659,83.947 86.104,83.947 83.238,81.08 83.238,68.683 "/>
<line fill="#AFB1B4" x1="93.787" y1="63.42" x2="93.787" y2="65.057"/>
<line fill="none" stroke="#000000" stroke-width="0.5" stroke-linecap="round" stroke-linejoin="round" x1="93.787" y1="63.42" x2="93.787" y2="65.057"/>
<path fill="#AFB1B4" d="M104.449,66.878l0.09-1.593c0,0-3.049,0.774-3.687-1.775l-0.409-3.277c0,0,0.728-1.547,2.275-0.772v3.003
	c0,0,0.253,0.91,1.536,0.91l1.275-0.091c0,0,0.865,0.364,0.865-0.865v-8.604c0,0-0.228-1.456,0.774-1.456
	c0,0,1.363,0.455,1.363-0.546V49.81"/>
<path fill="none" stroke="#000000" stroke-width="0.5" stroke-linecap="round" stroke-linejoin="round" d="M104.449,66.878
	l0.09-1.593c0,0-3.049,0.774-3.687-1.775l-0.409-3.277c0,0,0.728-1.547,2.275-0.772v3.003c0,0,0.253,0.91,1.536,0.91l1.275-0.091
	c0,0,0.865,0.364,0.865-0.865v-8.604c0,0-0.228-1.456,0.774-1.456c0,0,1.363,0.455,1.363-0.546V49.81"/>
<line fill="#AFB1B4" x1="104.255" y1="63.373" x2="104.261" y2="65.339"/>
<line fill="none" stroke="#000000" stroke-width="0.5" stroke-linecap="round" stroke-linejoin="round" x1="104.255" y1="63.373" x2="104.261" y2="65.339"/>
<line fill="#AFB1B4" x1="100.558" y1="61.156" x2="102.719" y2="60.006"/>
<line fill="none" stroke="#000000" stroke-width="0.5" stroke-linecap="round" stroke-linejoin="round" x1="100.558" y1="61.156" x2="102.719" y2="60.006"/>
<line fill="#AFB1B4" x1="100.739" y1="62.613" x2="102.719" y2="61.598"/>
<line fill="none" stroke="#000000" stroke-width="0.5" stroke-linecap="round" stroke-linejoin="round" x1="100.739" y1="62.613" x2="102.719" y2="61.598"/>
<line fill="#AFB1B4" x1="101.353" y1="64.527" x2="103.133" y2="63.025"/>
<line fill="none" stroke="#000000" stroke-width="0.5" stroke-linecap="round" stroke-linejoin="round" x1="101.353" y1="64.527" x2="103.133" y2="63.025"/>
<line fill="#AFB1B4" x1="94.514" y1="61.143" x2="96.893" y2="60.142"/>
<line fill="none" stroke="#000000" stroke-width="0.5" stroke-linecap="round" stroke-linejoin="round" x1="94.514" y1="61.143" x2="96.893" y2="60.142"/>
<line fill="#AFB1B4" x1="94.447" y1="62.778" x2="96.868" y2="61.826"/>
<line fill="none" stroke="#000000" stroke-width="0.5" stroke-linecap="round" stroke-linejoin="round" x1="94.447" y1="62.778" x2="96.868" y2="61.826"/>
<line fill="#AFB1B4" x1="93.787" y1="64.375" x2="96.816" y2="63.63"/>
<line fill="none" stroke="#000000" stroke-width="0.5" stroke-linecap="round" stroke-linejoin="round" x1="93.787" y1="64.375" x2="96.816" y2="63.63"/>
<path fill="#AFB1B4" d="M34.444,63.282c0.136-0.136,2.503-1.594,2.503-1.594"/>
<path fill="none" stroke="#000000" stroke-width="0.5" stroke-linecap="round" stroke-linejoin="round" d="M34.444,63.282
	c0.136-0.136,2.503-1.594,2.503-1.594"/>
<line fill="#AFB1B4" x1="34.671" y1="61.416" x2="36.947" y2="59.641"/>
<line fill="none" stroke="#000000" stroke-width="0.5" stroke-linecap="round" stroke-linejoin="round" x1="34.671" y1="61.416" x2="36.947" y2="59.641"/>
<line fill="#AFB1B4" x1="34.671" y1="59.187" x2="36.947" y2="58.094"/>
<line fill="none" stroke="#000000" stroke-width="0.5" stroke-linecap="round" stroke-linejoin="round" x1="34.671" y1="59.187" x2="36.947" y2="58.094"/>
<line fill="#AFB1B4" x1="34.671" y1="57.774" x2="37.373" y2="56.318"/>
<line fill="none" stroke="#000000" stroke-width="0.5" stroke-linecap="round" stroke-linejoin="round" x1="34.671" y1="57.774" x2="37.373" y2="56.318"/>
<line fill="#AFB1B4" x1="34.738" y1="56.177" x2="38.313" y2="53.086"/>
<line fill="none" stroke="#000000" stroke-width="0.5" stroke-linecap="round" stroke-linejoin="round" x1="34.738" y1="56.177" x2="38.313" y2="53.086"/>
<line fill="#AFB1B4" x1="38.053" y1="55.573" x2="40.771" y2="53.086"/>
<line fill="none" stroke="#000000" stroke-width="0.5" stroke-linecap="round" stroke-linejoin="round" x1="38.053" y1="55.573" x2="40.771" y2="53.086"/>
<line fill="#AFB1B4" x1="40.587" y1="56.228" x2="43.505" y2="54.905"/>
<line fill="none" stroke="#000000" stroke-width="0.5" stroke-linecap="round" stroke-linejoin="round" x1="40.587" y1="56.228" x2="43.505" y2="54.905"/>
<line fill="#AFB1B4" x1="41.043" y1="57.82" x2="43.985" y2="56.359"/>
<line fill="none" stroke="#000000" stroke-width="0.5" stroke-linecap="round" stroke-linejoin="round" x1="41.043" y1="57.82" x2="43.985" y2="56.359"/>
<line fill="#AFB1B4" x1="41.043" y1="59.868" x2="44.047" y2="58.367"/>
<line fill="none" stroke="#000000" stroke-width="0.5" stroke-linecap="round" stroke-linejoin="round" x1="41.043" y1="59.868" x2="44.047" y2="58.367"/>
<line fill="#AFB1B4" x1="41.043" y1="62.053" x2="44.047" y2="60.552"/>
<line fill="none" stroke="#000000" stroke-width="0.5" stroke-linecap="round" stroke-linejoin="round" x1="41.043" y1="62.053" x2="44.047" y2="60.552"/>
<line fill="#AFB1B4" x1="41.437" y1="64.236" x2="44.047" y2="63.191"/>
<line fill="none" stroke="#000000" stroke-width="0.5" stroke-linecap="round" stroke-linejoin="round" x1="41.437" y1="64.236" x2="44.047" y2="63.191"/>
<line fill="#AFB1B4" x1="40.069" y1="55.641" x2="42.404" y2="53.648"/>
<line fill="none" stroke="#000000" stroke-width="0.5" stroke-linecap="round" stroke-linejoin="round" x1="40.069" y1="55.641" x2="42.404" y2="53.648"/>
<text transform="matrix(1 0 0 1 30.2422 98.1587)" fill="#ED1C24" font-family="'ArialMT'" font-size="5.8261">GOOD</text>
<text transform="matrix(1 0 0 1 88.4199 98.1587)" fill="#ED1C24" font-family="'ArialMT'" font-size="5.8261">BLOWN</text>
<text transform="matrix(1 0 0 1 148.6797 98.1587)" fill="#ED1C24" font-family="'ArialMT'" font-size="5.8261">FUSE PULLER</text>
<g>
	<polygon fill="#8C8C8C" points="189.154,45.513 189.957,45.974 185.113,48.984 185.113,48.106 	"/>
	<polygon fill="#8C8C8C" points="189.943,36.247 185.794,38.743 185.794,38.749 185.786,38.749 185.772,38.757 185.767,38.763 
		185.76,38.771 185.752,38.777 185.746,38.784 185.738,38.791 185.732,38.805 185.725,38.812 185.72,38.818 185.72,38.826 
		185.704,38.805 185.696,38.791 185.676,38.749 185.656,38.709 185.629,38.674 185.607,38.634 185.587,38.6 185.561,38.558 
		185.532,38.523 185.506,38.49 185.484,38.448 185.458,38.414 185.43,38.386 185.403,38.353 185.375,38.318 185.348,38.283 
		185.32,38.249 185.314,38.249 189.078,35.779 	"/>
	<polygon fill="#1A1A1A" points="190.178,46.37 190.178,50.179 186.246,52.784 186.246,51.378 186.246,51.357 186.246,51.337 
		186.246,51.329 186.246,51.315 186.246,51.297 186.246,51.275 186.24,51.255 186.24,51.234 186.233,51.213 186.226,51.193 
		186.218,51.173 186.212,51.159 186.204,51.139 186.198,51.119 186.184,51.104 186.171,51.084 186.164,51.07 186.151,51.05 
		186.136,51.035 186.122,51.021 186.11,51.001 186.089,50.986 186.075,50.979 186.055,50.968 186.033,50.954 185.113,50.41 
		185.113,49.525 	"/>
	<polygon fill="#1A1A1A" points="190.178,36.631 190.178,40.451 186.246,43.058 186.246,40.334 186.246,40.315 186.246,40.293 
		186.246,40.273 186.246,40.219 186.246,40.163 186.24,40.107 186.233,40.054 186.226,40.006 186.212,39.95 186.204,39.903 
		186.191,39.848 186.177,39.8 186.164,39.751 186.151,39.704 186.129,39.655 186.115,39.607 186.095,39.56 186.075,39.519 
		186.063,39.47 186.04,39.421 186.019,39.381 186,39.34 185.979,39.292 185.951,39.25 185.93,39.21 185.91,39.168 185.916,39.168 
		185.924,39.168 185.938,39.168 185.951,39.168 185.958,39.161 185.972,39.161 185.979,39.154 185.993,39.154 186,39.148 
		186.013,39.14 186.019,39.14 	"/>
	<polygon fill="#444444" points="185.409,55.575 185.409,55.604 185.403,55.631 185.403,55.652 185.403,55.68 185.403,55.699 
		185.395,55.72 185.395,55.741 185.395,55.76 185.388,55.776 185.388,55.788 185.38,55.811 185.38,55.816 185.375,55.83 
		185.375,55.837 185.369,55.844 185.369,55.851 185.369,55.856 185.361,55.865 185.361,55.872 185.354,55.872 185.341,55.884 
		185.333,55.884 185.32,55.897 185.299,55.912 183.688,56.976 183.688,53.052 185.409,52.078 185.409,53.525 185.409,53.629 
		185.409,55.404 185.409,55.426 185.409,55.445 185.409,55.466 185.409,55.493 185.409,55.521 185.409,55.548 	"/>
	<path fill="#444444" d="M185.409,43.792v0.109v0.7l-2.324,1.522l-3.672-2.201l-0.013-0.057l-0.006-0.062l-0.013-0.054l-0.017-0.056
		l-0.006-0.055l-0.015-0.061l-0.014-0.057l-0.012-0.055l-0.021-0.055l-0.014-0.054l-0.021-0.063l-0.013-0.047l-0.021-0.062
		l-0.021-0.056l-0.021-0.054l-0.019-0.057l-0.023-0.047l-0.019-0.055l-0.021-0.056l-0.028-0.055l-0.021-0.055l-0.027-0.048
		l-0.027-0.055l-0.013-0.027l-0.008-0.007l-0.006-0.021l-0.016-0.021l-0.013-0.014l-0.013-0.028l-0.027-0.048l-0.028-0.041
		l-0.034-0.048l-0.028-0.041l-0.034-0.041l-0.032-0.042l-0.028-0.047l-0.034-0.042l-0.034-0.041l-0.034-0.041l-0.042-0.035
		l-0.034-0.048l-0.033-0.034l-0.036-0.034l-0.04-0.041l-0.034-0.034l-0.036-0.042l-0.039-0.026l-0.035-0.042l-0.041-0.027
		l-0.042-0.034l-0.033-0.027l-0.042-0.033l-0.039-0.028l-0.042-0.027l-0.035-0.027l-0.042-0.027l-0.041-0.028l-0.042-0.021
		l-0.026-0.014l-0.013-0.006l-0.021-0.014l-0.021-0.007l-1.117-0.658l5.391-3.308l0.014-0.014l0.021-0.014l0.012-0.007l0.016-0.007
		h0.006l0.007-0.007l0.014-0.006h0.008h0.005h0.009l0.007-0.008h0.007h0.006h0.007h0.016h0.007h0.007h0.013h0.007h0.014h0.008
		l0.012,0.008h0.015l0.021,0.006l0.013,0.007l0.015,0.007l0.02,0.007l0.015,0.008l0.026,0.006l0.021,0.008l0.013,0.014h0.014v0.007
		l0.035,0.013l1.839,1.022l0.027,0.014l0.006,0.007l0.028,0.021l0.006,0.007h0.008l0.014,0.014l0.013,0.015l0.028,0.013l0.014,0.015
		l0.021,0.02l0.021,0.021l0.02,0.014l0.02,0.021l0.028,0.021l0.021,0.02l0.021,0.022l0.021,0.02l0.02,0.027l0.021,0.021l0.021,0.021
		l0.021,0.026l0.021,0.021l0.014,0.027l0.021,0.021l0.021,0.027l0.014,0.021l0.021,0.026l0.021,0.022l0.014,0.026L184.9,39.1
		l0.014,0.027l0.015,0.021l0.014,0.026l0.013,0.021l0.016,0.021l0.014,0.026l0.005,0.007l0.016,0.027l0.007,0.015l0.007,0.014
		l0.006,0.014l0.029,0.041l0.02,0.041l0.021,0.034l0.019,0.034l0.021,0.042l0.021,0.033l0.021,0.035l0.013,0.035l0.021,0.04
		l0.021,0.034l0.014,0.034l0.021,0.035l0.016,0.034l0.013,0.027l0.013,0.034l0.015,0.034l0.013,0.027l0.008,0.034l0.013,0.027
		l0.008,0.034l0.014,0.027l0.005,0.027l0.008,0.028l0.007,0.028v0.026l0.009,0.028v0.02v0.028l0.006,0.02v0.028v0.02v0.022v0.019
		V43.792z M184.352,39.896v-0.008v-0.014V39.86v-0.006V39.84v-0.014V39.82l-0.005-0.014v-0.014v-0.007l-0.006-0.015l-0.009-0.006
		v-0.015l-0.008-0.007l-0.005-0.014l-0.007-0.007l-0.008-0.013l-0.006-0.007l-0.008-0.008l-0.008-0.007l-0.006-0.007l-0.013-0.007
		l-0.009-0.007l-0.006-0.007l-0.007-0.007l-0.013-0.008l-0.008-0.007h-0.014l-0.007-0.006h-0.014l-0.008-0.007h-0.014h-0.007h-0.014
		l-0.005-0.008h-0.015h-0.006l-0.016,0.008h-0.014h-0.007h-0.014l-0.008,0.007h-0.013l-0.014,0.006l-0.006,0.007l-0.008,0.008
		h-0.015l-4.525,2.915l-0.014,0.008l-0.007,0.006l-0.008,0.007l-0.006,0.008l-0.008,0.007l-0.006,0.007l-0.008,0.014l-0.007,0.006
		l-0.008,0.007l-0.006,0.015L179.4,42.66l-0.006,0.014v0.006l-0.008,0.015v0.008l-0.005,0.013v0.007v0.014v0.007v0.014v0.014v0.008
		v0.014v0.013v0.007l0.005,0.015v0.006l0.008,0.014v0.015l0.006,0.006l0.007,0.015v0.007l0.006,0.013l0.008,0.007l0.007,0.008
		l0.014,0.007l0.008,0.015l0.006,0.006l0.008,0.007l0.007,0.007l0.014,0.006h0.006l0.007,0.008l0.016,0.007l0.006,0.007h0.014
		l0.007,0.007h0.013h0.008l0.014,0.007h0.006h0.015h0.014h0.007h0.015h0.005l0.015-0.007h0.007l0.015-0.007h0.013l0.008-0.007
		l0.014-0.007h0.006l0.007-0.008l4.534-2.915h0.006l0.009-0.007l0.013-0.007l0.006-0.014l0.008-0.007l0.008-0.006l0.006-0.008
		l0.008-0.014l0.007-0.007l0.005-0.007v-0.014l0.008-0.007l0.009-0.014V39.93l0.006-0.014v-0.007L184.352,39.896z"/>
	<polygon fill="#444444" points="184.511,51.057 185.38,51.57 183.688,52.524 183.688,46.755 184.277,46.37 184.277,47.66 
		184.271,47.668 184.265,47.688 184.25,47.709 184.236,47.722 184.23,47.742 184.223,47.764 184.215,47.783 184.209,47.805 
		184.209,47.825 184.202,47.838 184.196,47.858 184.196,47.88 184.196,47.907 184.196,47.929 184.196,47.947 184.196,47.969 
		184.202,47.989 184.202,48.011 184.209,48.031 184.215,48.052 184.223,48.071 184.23,48.092 184.236,48.106 184.243,48.127 
		184.256,48.148 184.271,48.167 184.277,48.176 184.277,50.664 184.277,50.686 184.277,50.706 184.277,50.726 184.283,50.748 
		184.283,50.774 184.291,50.795 184.299,50.816 184.305,50.83 184.319,50.849 184.324,50.872 184.332,50.884 184.347,50.905 
		184.361,50.926 184.374,50.939 184.38,50.954 184.4,50.968 184.414,50.979 184.428,50.994 184.442,51.008 184.463,51.021 
		184.477,51.035 184.484,51.035 184.484,51.043 184.49,51.043 	"/>
	<polygon fill="#8C8C8C" points="182.788,58.218 182.788,58.78 182.179,59.896 177.253,63.038 177.232,63.053 177.212,63.06 
		177.206,63.066 177.191,63.066 177.185,63.08 177.178,63.08 177.157,63.094 177.144,63.106 177.123,63.12 177.109,63.134 
		177.089,63.155 177.075,63.169 177.062,63.189 177.049,63.203 177.033,63.223 177.028,63.243 174.82,67.38 168.295,71.625 
		168.295,53.491 168.295,53.47 168.295,53.451 168.287,53.423 168.287,53.402 168.281,53.381 168.274,53.36 168.267,53.34 
		168.261,53.318 168.254,53.306 168.247,53.286 168.232,53.265 168.227,53.251 168.214,53.229 168.197,53.216 168.186,53.202 
		168.171,53.183 168.158,53.169 168.144,53.155 168.124,53.15 168.109,53.134 168.096,53.122 168.075,53.113 168.063,53.106 
		168.055,53.1 168.04,53.094 168.035,53.08 168.028,53.073 168.021,53.066 168.013,53.06 175.016,48.607 175.024,48.607 
		175.181,48.703 175.188,48.71 175.204,48.729 175.217,48.75 175.223,48.765 175.236,48.785 175.251,48.799 175.265,48.812 
		175.284,48.827 175.298,48.839 175.312,48.854 175.333,48.867 175.345,48.874 175.367,48.888 175.387,48.896 175.401,48.902 
		175.422,48.909 175.442,48.916 175.463,48.923 175.484,48.93 175.505,48.93 175.525,48.93 175.545,48.936 175.553,48.936 
		175.558,48.936 177.206,49.952 177.22,49.964 177.24,49.971 177.261,49.985 177.282,49.992 177.301,49.999 177.316,49.999 
		177.343,50.006 177.356,50.006 177.377,50.013 177.396,50.013 177.418,50.013 177.439,50.013 177.46,50.013 177.48,50.006 
		177.5,50.006 177.521,49.999 177.541,49.992 177.555,49.992 177.575,49.979 177.597,49.971 177.609,49.964 177.633,49.952 
		177.651,49.945 177.665,49.931 177.686,49.917 177.699,49.903 177.714,49.89 177.725,49.876 177.74,49.854 177.754,49.841 
		177.769,49.82 177.774,49.808 177.788,49.787 177.796,49.766 177.801,49.745 177.815,49.725 177.823,49.705 177.823,49.685 
		177.83,49.663 177.837,49.643 177.837,49.621 177.837,49.601 177.837,49.588 182.323,46.733 182.788,47.017 182.788,57.579 
		182.783,57.586 182.769,57.599 182.755,57.62 182.741,57.634 182.734,57.655 182.721,57.667 182.708,57.688 182.699,57.709 
		182.692,57.723 182.687,57.742 182.679,57.765 182.673,57.786 182.666,57.805 182.666,57.827 182.658,57.847 182.658,57.867 
		182.658,57.887 182.658,57.909 182.658,57.929 182.658,57.949 182.666,57.971 182.666,57.991 182.673,58.011 182.679,58.031 
		182.687,58.053 182.692,58.073 182.708,58.094 182.713,58.115 182.727,58.129 182.734,58.148 182.749,58.17 182.762,58.183 
		182.774,58.197 	"/>
	<polygon fill="#BCBCBC" points="181.884,46.467 177.604,49.196 176.41,48.463 179.661,46.37 179.682,46.364 179.694,46.351 
		179.716,46.336 179.729,46.322 179.745,46.302 179.756,46.289 179.771,46.274 179.783,46.255 179.792,46.24 179.806,46.221 
		179.813,46.198 179.826,46.186 179.831,46.166 179.839,46.145 179.847,46.124 179.847,46.103 179.853,46.083 179.853,46.063 
		179.86,46.042 179.86,46.021 179.86,46.001 179.86,45.979 179.86,45.959 179.853,45.938 179.853,45.918 179.847,45.897 
		179.839,45.878 179.831,45.856 179.826,45.836 179.819,45.814 179.806,45.802 179.798,45.781 179.783,45.76 179.771,45.739 
		179.756,45.726 179.745,45.712 179.729,45.69 179.716,45.678 179.694,45.664 179.682,45.657 179.661,45.644 179.647,45.63 
		179.628,45.623 179.613,45.616 179.593,45.602 179.572,45.597 179.551,45.588 179.531,45.588 179.518,45.582 179.496,45.582 
		179.476,45.575 179.455,45.575 179.455,45.013 	"/>
	<polygon fill="#8C8C8C" points="178.611,46.007 178.619,46.027 175.86,47.798 175.86,47.229 175.874,47.222 175.882,47.222 
		175.896,47.214 175.902,47.207 175.908,47.207 175.922,47.2 178.611,45.402 	"/>
	<polygon fill="#8C8C8C" points="178.611,44.47 178.611,44.854 175.86,46.687 175.86,46.59 175.86,46.576 175.86,46.563 
		175.86,46.556 175.86,46.542 175.86,46.536 175.86,46.488 175.86,46.433 175.855,46.384 175.848,46.329 175.848,46.274 
		175.84,46.221 175.833,46.172 175.819,46.117 175.812,46.063 175.806,46.014 175.794,45.959 175.785,45.905 175.771,45.85 
		175.759,45.802 175.744,45.747 175.738,45.719 175.738,45.712 175.752,45.706 175.759,45.698 178.543,43.84 178.549,43.881 
		178.556,43.929 178.563,43.957 178.556,43.964 178.549,43.99 178.537,44.012 178.53,44.032 178.522,44.053 178.522,44.074 
		178.516,44.094 178.516,44.121 178.51,44.142 178.51,44.162 178.51,44.182 178.51,44.21 178.51,44.23 178.516,44.251 
		178.516,44.271 178.522,44.292 178.53,44.313 178.537,44.334 178.543,44.354 178.549,44.374 178.563,44.396 178.572,44.416 
		178.583,44.438 178.598,44.45 	"/>
	<polygon fill="#8C8C8C" points="178.385,43.346 178.405,43.388 175.581,45.273 175.566,45.247 175.545,45.197 175.519,45.149 
		175.497,45.108 175.477,45.062 175.45,45.02 175.429,44.972 175.422,44.972 175.422,44.965 175.414,44.958 175.408,44.945 
		175.401,44.937 175.396,44.93 175.387,44.917 175.36,44.868 175.325,44.821 175.298,44.78 175.265,44.732 175.236,44.69 
		175.204,44.642 175.17,44.602 175.147,44.566 175.147,44.561 175.153,44.561 175.162,44.553 175.176,44.553 175.181,44.546 
		175.188,44.539 178.008,42.708 178.015,42.708 178.041,42.742 178.07,42.777 178.092,42.804 178.117,42.838 178.139,42.873 
		178.166,42.906 178.186,42.941 178.206,42.969 178.235,43.003 178.248,43.022 178.256,43.044 178.261,43.051 178.269,43.071 
		178.274,43.085 178.296,43.126 178.316,43.166 178.331,43.21 178.351,43.257 178.372,43.297 	"/>
	<polygon fill="#8C8C8C" points="177.686,42.379 174.954,44.147 174.942,44.154 174.936,44.162 174.929,44.168 174.914,44.176 
		174.906,44.189 174.9,44.196 174.893,44.203 174.887,44.21 174.88,44.224 174.88,44.23 174.853,44.203 174.82,44.168 
		174.785,44.135 174.749,44.101 174.715,44.066 174.688,44.032 174.654,44.004 174.611,43.977 174.579,43.95 174.544,43.923 
		174.51,43.895 174.477,43.875 174.44,43.847 174.4,43.826 174.373,43.813 174.364,43.805 174.352,43.799 174.346,43.799 
		174.33,43.792 174.152,43.682 176.953,41.94 177.432,42.215 177.452,42.229 177.473,42.235 177.494,42.249 177.516,42.255 
		177.534,42.269 177.555,42.29 177.582,42.303 177.604,42.317 177.633,42.338 177.658,42.358 	"/>
	<polygon fill="#8C8C8C" points="175.71,41.214 176.506,41.679 173.741,43.4 173.741,43.407 173.735,43.407 173.728,43.414 
		173.713,43.422 173.707,43.428 172.974,42.996 	"/>
	<polygon fill="#5F5F5F" points="175.414,46.59 175.414,47.845 173.652,46.762 173.632,46.748 173.618,46.733 173.598,46.72 
		173.592,46.72 173.583,46.713 173.563,46.701 173.55,46.693 173.529,46.687 173.508,46.68 173.487,46.673 173.469,46.666 
		173.454,46.666 173.432,46.659 173.412,46.659 173.393,46.659 173.372,46.659 173.349,46.659 173.329,46.659 173.309,46.659 
		173.289,46.666 173.269,46.673 173.247,46.68 173.228,46.68 173.207,46.693 173.192,46.701 173.173,46.708 173.151,46.72 
		171.923,47.509 170.965,46.953 170.965,43.744 170.965,43.723 170.965,43.702 170.965,43.682 170.965,43.641 170.965,43.606 
		170.97,43.565 170.97,43.531 170.978,43.496 170.978,43.462 170.983,43.428 170.983,43.395 170.991,43.366 170.998,43.332 
		171.003,43.306 171.012,43.277 171.02,43.25 171.032,43.223 171.038,43.194 171.045,43.166 171.053,43.146 171.067,43.126 
		171.072,43.105 171.087,43.085 171.093,43.064 171.108,43.051 171.114,43.037 171.121,43.018 171.134,43.01 171.143,42.996 
		171.147,42.989 171.154,42.976 171.163,42.976 171.169,42.961 171.176,42.961 171.184,42.961 171.184,42.955 171.533,42.728 
		171.54,42.728 171.546,42.728 171.566,42.735 171.587,42.742 171.615,42.749 171.635,42.763 171.663,42.77 171.691,42.783 
		171.71,42.791 171.719,42.791 171.724,42.798 171.738,42.804 174.125,44.189 174.132,44.196 174.146,44.203 174.152,44.21 
		174.167,44.218 174.186,44.23 174.207,44.245 174.236,44.259 174.263,44.278 174.283,44.292 174.312,44.313 174.338,44.334 
		174.358,44.354 174.386,44.381 174.413,44.409 174.44,44.431 174.469,44.457 174.495,44.484 174.523,44.52 174.55,44.546 
		174.586,44.581 174.611,44.615 174.639,44.649 174.668,44.684 174.694,44.718 174.722,44.759 174.749,44.793 174.785,44.834 
		174.812,44.876 174.838,44.917 174.872,44.958 174.9,44.998 174.929,45.04 174.954,45.089 174.99,45.129 175.016,45.178 
		175.031,45.191 175.037,45.197 175.044,45.211 175.044,45.219 175.052,45.219 175.059,45.247 175.079,45.287 175.1,45.32 
		175.12,45.355 175.141,45.396 175.153,45.438 175.176,45.479 175.195,45.521 175.209,45.562 175.223,45.602 175.242,45.65 
		175.257,45.69 175.27,45.739 175.284,45.781 175.298,45.829 175.312,45.87 175.325,45.918 175.333,45.959 175.345,46.007 
		175.354,46.056 175.367,46.097 175.374,46.145 175.38,46.193 175.387,46.233 175.396,46.282 175.401,46.329 175.401,46.37 
		175.408,46.419 175.408,46.46 175.414,46.501 175.414,46.549 175.414,46.556 175.414,46.563 175.414,46.576 	"/>
	<polygon fill="#8C8C8C" points="175.044,40.821 175.265,40.959 172.526,42.735 172.006,42.435 174.482,40.849 174.502,40.836 
		174.523,40.828 174.529,40.828 174.544,40.821 174.557,40.808 174.565,40.801 174.579,40.794 174.586,40.788 174.592,40.788 
		174.604,40.779 174.611,40.774 174.627,40.766 174.639,40.766 174.646,40.76 174.654,40.76 174.668,40.753 174.681,40.753 
		174.694,40.753 174.701,40.746 174.715,40.746 174.729,40.746 174.743,40.746 174.757,40.746 174.776,40.746 174.79,40.746 
		174.804,40.746 174.82,40.746 174.838,40.753 174.853,40.753 174.872,40.76 174.893,40.76 174.906,40.766 174.929,40.774 
		174.948,40.779 174.97,40.788 174.981,40.794 175.003,40.801 175.01,40.801 175.024,40.814 	"/>
	<polygon fill="#AEAEAE" points="174.592,48.34 167.437,52.88 167.424,52.887 167.424,52.894 167.402,52.9 167.382,52.9 
		167.362,52.907 167.342,52.914 167.327,52.922 167.308,52.929 167.287,52.936 167.267,52.942 167.253,52.956 167.238,52.971 
		167.219,52.978 167.206,52.989 167.19,53.003 167.17,53.018 167.155,53.038 167.143,53.052 167.136,53.066 167.122,53.085 
		167.108,53.106 167.103,53.122 167.088,53.141 167.08,53.162 167.073,53.183 167.067,53.202 167.06,53.223 167.06,53.251 
		167.054,53.271 167.054,53.292 167.054,53.313 167.054,53.334 167.054,53.354 167.054,53.374 167.06,53.395 167.06,53.416 
		167.067,53.437 167.073,53.456 167.073,53.477 167.073,53.483 166.038,54.149 166.032,54.149 166.011,54.149 165.991,54.143 
		165.969,54.143 165.95,54.143 165.929,54.143 165.908,54.143 165.887,54.143 165.866,54.143 165.848,54.149 165.824,54.156 
		165.806,54.156 165.785,54.17 165.771,54.177 165.75,54.184 165.737,54.191 165.715,54.205 165.695,54.212 165.681,54.224 
		165.667,54.238 165.654,54.252 165.634,54.266 165.62,54.28 165.606,54.301 165.599,54.314 165.585,54.334 165.572,54.348 
		165.565,54.369 165.552,54.39 165.544,54.41 165.537,54.43 165.531,54.452 165.523,54.472 165.523,54.492 165.518,54.512 
		165.518,54.541 165.518,54.561 165.518,54.581 165.518,54.603 165.518,54.623 165.518,54.645 165.523,54.663 165.531,54.685 
		165.537,54.705 165.544,54.719 165.552,54.739 165.56,54.759 165.565,54.781 165.578,54.793 165.585,54.814 165.599,54.828 
		165.612,54.85 165.626,54.863 165.641,54.877 165.654,54.892 165.661,54.898 165.661,54.903 164.475,55.664 164.466,55.664 
		164.447,55.659 164.427,55.652 164.405,55.646 164.385,55.646 164.364,55.637 164.344,55.637 164.322,55.637 164.303,55.637 
		164.282,55.637 164.262,55.637 164.241,55.646 164.221,55.646 164.207,55.652 164.187,55.659 164.166,55.664 164.145,55.673 
		164.131,55.686 164.11,55.692 164.089,55.699 164.076,55.713 164.063,55.728 164.042,55.741 164.029,55.755 164.014,55.769 
		164.001,55.783 163.987,55.802 163.974,55.816 163.967,55.837 163.952,55.856 163.939,55.879 163.932,55.893 163.925,55.919 
		163.919,55.933 163.911,55.954 163.906,55.981 163.906,56.003 163.898,56.021 163.898,56.043 163.898,56.063 163.898,56.085 
		163.898,56.104 163.898,56.126 163.906,56.146 163.911,56.166 163.911,56.187 163.919,56.208 163.925,56.222 163.932,56.24 
		163.939,56.262 163.952,56.282 163.96,56.297 163.974,56.315 163.987,56.329 164.001,56.351 164.014,56.364 164.029,56.378 
		164.042,56.393 164.056,56.406 164.076,56.418 164.076,56.426 162.85,57.224 162.843,57.224 162.828,57.224 162.807,57.216 
		162.786,57.216 162.767,57.216 162.744,57.216 162.726,57.224 162.705,57.224 162.684,57.229 162.67,57.229 162.65,57.235 
		162.629,57.242 162.607,57.256 162.595,57.264 162.574,57.271 162.562,57.284 162.54,57.298 162.526,57.305 162.506,57.319 
		162.492,57.333 162.479,57.345 162.465,57.359 162.451,57.38 162.438,57.394 162.43,57.415 162.416,57.436 162.411,57.448 
		162.396,57.47 162.388,57.49 162.383,57.511 162.376,57.531 162.367,57.552 162.367,57.579 162.362,57.599 162.362,57.62 
		162.362,57.641 162.362,57.662 162.362,57.681 162.367,57.702 162.367,57.723 162.376,57.742 162.376,57.765 162.383,57.786 
		162.388,57.805 162.396,57.818 162.411,57.84 162.416,57.858 162.424,57.875 162.438,57.894 162.451,57.909 162.465,57.929 
		162.479,57.942 162.492,57.956 162.492,57.964 161.396,58.663 161.381,58.656 161.367,58.649 161.347,58.643 161.326,58.636 
		161.305,58.636 161.284,58.629 161.265,58.629 161.243,58.629 161.223,58.629 161.202,58.629 161.182,58.636 161.161,58.636 
		161.142,58.643 161.119,58.649 161.106,58.656 161.085,58.663 161.065,58.669 161.051,58.676 161.03,58.691 161.011,58.696 
		160.996,58.711 160.983,58.725 160.962,58.738 160.949,58.752 160.935,58.767 160.922,58.787 160.907,58.802 160.894,58.82 
		160.888,58.841 160.873,58.862 160.865,58.876 160.852,58.896 160.846,58.916 160.839,58.938 160.839,58.957 160.831,58.979 
		160.831,58.998 160.824,59.019 160.824,59.039 160.824,59.061 160.824,59.081 160.824,59.101 160.831,59.13 160.831,59.143 
		160.839,59.163 160.846,59.184 160.852,59.205 160.859,59.226 160.865,59.247 160.873,59.259 160.888,59.28 160.894,59.301 
		160.907,59.314 160.922,59.334 160.118,59.843 160.111,59.843 160.104,59.85 160.091,59.85 160.085,59.856 160.077,59.863 
		160.057,59.877 160.009,59.912 159.968,59.952 159.926,59.994 159.886,60.036 159.845,60.074 159.803,60.125 159.761,60.173 
		159.721,60.221 159.687,60.269 159.646,60.315 159.612,60.37 159.577,60.419 159.543,60.475 159.507,60.528 159.473,60.584 
		159.44,60.646 159.412,60.699 159.384,60.762 159.357,60.818 159.329,60.879 159.302,60.939 159.281,61.002 159.261,61.064 
		159.24,61.126 159.221,61.187 159.206,61.255 159.193,61.317 159.185,61.379 159.172,61.441 159.166,61.511 159.166,61.57 
		159.166,61.577 159.166,61.591 159.166,61.605 159.158,61.612 159.158,61.626 159.158,61.64 159.158,78.822 156.25,77.056 
		156.243,77.044 156.243,77.037 156.235,77.025 156.229,77.017 156.229,77 156.223,76.984 156.216,76.97 156.208,76.955 
		156.208,76.943 156.201,76.927 156.201,76.916 156.195,76.9 156.195,76.886 156.195,71.2 156.195,71.174 156.195,71.153 
		156.188,71.132 156.188,71.104 156.181,71.083 156.175,71.064 156.167,71.048 156.167,71.043 156.167,59.396 156.167,59.371 
		156.167,59.35 156.167,59.334 156.175,59.308 156.181,59.272 156.188,59.233 156.195,59.198 156.201,59.158 156.216,59.114 
		156.229,59.067 156.243,59.027 156.264,58.985 156.276,58.938 156.297,58.896 156.318,58.849 156.34,58.809 156.366,58.76 
		156.395,58.718 156.415,58.676 156.441,58.636 156.468,58.594 156.496,58.554 156.523,58.519 156.544,58.484 156.572,58.451 
		156.599,58.416 156.627,58.388 156.654,58.36 156.682,58.333 156.709,58.312 156.729,58.292 156.751,58.28 156.771,58.265 
		156.779,58.265 156.792,58.258 156.806,58.244 162.108,54.835 172.185,48.36 173.378,47.598 	"/>
	<polygon fill="#8C8C8C" points="171.108,48.031 161.655,54.107 160.009,52.894 160.001,52.887 159.988,52.88 159.98,52.874 
		159.975,52.865 159.968,52.865 159.962,52.86 159.954,52.86 159.92,52.825 159.87,52.791 159.823,52.763 159.769,52.736 
		159.721,52.709 159.666,52.688 159.618,52.668 159.563,52.647 159.515,52.634 159.459,52.62 159.404,52.613 159.352,52.6 
		159.295,52.593 159.247,52.586 159.193,52.586 159.138,52.586 159.082,52.586 159.028,52.586 158.98,52.593 158.925,52.6 
		158.87,52.606 158.821,52.62 158.768,52.627 158.719,52.641 158.672,52.66 158.616,52.675 158.569,52.695 158.521,52.716 
		158.473,52.742 158.425,52.763 158.376,52.791 158.376,52.798 158.37,52.798 158.362,52.805 158.355,52.812 158.342,52.818 
		158.334,52.833 158.328,52.84 158.321,52.847 158.315,52.854 158.308,52.865 158.301,52.874 158.295,52.887 158.295,52.894 
		158.287,52.9 158.287,52.914 158.279,52.922 158.279,52.936 158.273,52.949 158.273,52.956 158.273,52.971 158.273,52.978 
		158.273,52.989 158.273,53.003 158.273,53.011 158.273,53.024 158.273,53.031 158.279,53.045 158.279,53.06 158.287,53.066 
		158.287,53.08 158.295,53.085 158.301,53.1 158.301,53.106 158.308,53.122 158.315,53.127 158.321,53.141 158.328,53.15 
		158.334,53.155 158.35,53.162 158.355,53.169 158.362,53.176 158.37,53.183 158.384,53.19 158.389,53.195 158.397,53.202 
		158.41,53.202 158.417,53.209 158.431,53.209 158.438,53.216 158.451,53.216 158.459,53.216 158.473,53.223 158.485,53.223 
		158.493,53.223 158.506,53.223 158.514,53.223 158.526,53.216 158.533,53.216 158.548,53.216 158.562,53.209 158.569,53.209 
		158.582,53.202 158.59,53.202 158.603,53.195 158.609,53.19 158.644,53.169 158.672,53.155 158.705,53.134 158.739,53.122 
		158.773,53.106 158.808,53.1 158.842,53.085 158.878,53.08 158.912,53.066 158.952,53.06 158.986,53.052 159.021,53.052 
		159.062,53.045 159.096,53.045 159.138,53.045 159.172,53.045 159.213,53.045 159.247,53.052 159.281,53.06 159.323,53.066 
		159.357,53.073 159.392,53.08 159.433,53.094 159.467,53.106 159.501,53.122 159.535,53.134 159.57,53.15 159.604,53.169 
		159.638,53.19 159.666,53.209 159.7,53.229 159.707,53.229 159.714,53.237 159.721,53.244 159.729,53.251 159.742,53.258 
		161.243,54.376 159.364,55.582 159.364,53.572 159.364,53.561 159.364,53.554 159.364,53.54 159.364,53.525 159.357,53.519 
		159.357,53.505 159.352,53.498 159.352,53.483 159.344,53.477 159.337,53.465 159.337,53.456 159.329,53.442 159.323,53.437 
		159.315,53.428 159.31,53.423 159.302,53.409 159.295,53.402 159.281,53.395 159.275,53.388 159.269,53.381 159.261,53.374 
		159.247,53.374 159.24,53.367 159.227,53.36 159.221,53.36 159.206,53.354 159.2,53.354 159.185,53.347 159.179,53.347 
		159.166,53.347 159.151,53.347 159.145,53.347 159.13,53.347 159.116,53.347 159.11,53.347 159.096,53.347 159.082,53.354 
		159.074,53.354 159.062,53.36 159.056,53.36 159.041,53.367 159.035,53.374 159.028,53.374 159.015,53.381 159.007,53.388 
		159.001,53.395 158.993,53.402 158.986,53.409 158.973,53.423 158.973,53.428 158.967,53.437 158.96,53.442 158.952,53.456 
		158.945,53.465 158.938,53.477 158.938,53.483 158.933,53.498 158.925,53.505 158.925,53.519 158.925,53.525 158.918,53.54 
		158.918,53.554 158.918,53.561 158.918,53.572 158.918,55.872 156.395,57.498 156.381,57.504 156.36,57.516 156.34,57.524 
		156.332,57.531 156.284,57.566 156.229,57.599 156.175,57.646 156.127,57.688 156.079,57.736 156.03,57.786 155.983,57.833 
		155.941,57.882 155.9,57.938 155.853,57.991 155.812,58.045 155.777,58.102 155.736,58.162 155.7,58.225 155.667,58.28 
		155.633,58.341 155.599,58.402 155.57,58.472 155.536,58.533 155.51,58.594 155.481,58.656 155.461,58.725 155.435,58.794 
		155.413,58.855 155.393,58.923 155.379,58.985 155.365,59.054 155.351,59.123 155.337,59.191 155.33,59.259 155.33,59.308 
		155.33,59.329 155.323,59.35 155.323,59.371 155.323,59.396 155.323,71.043 155.316,71.064 155.309,71.083 150.982,73.8 
		150.969,73.806 150.969,73.814 150.948,73.828 150.935,73.835 150.927,73.835 150.927,73.843 150.92,73.843 150.907,73.847 
		150.894,73.847 150.88,73.853 150.865,73.853 150.852,73.863 150.838,73.869 150.823,73.876 150.804,73.876 150.791,73.876 
		150.776,73.88 150.763,73.88 150.755,73.888 150.749,73.888 150.639,73.82 150.639,73.814 150.639,73.792 150.632,73.771 
		150.632,73.744 150.632,73.718 150.632,73.699 150.632,73.683 150.632,73.669 150.632,73.654 150.632,56.233 150.632,56.222 
		150.632,56.213 150.632,56.199 150.632,56.187 150.639,56.139 150.639,56.091 150.646,56.043 150.652,55.996 150.66,55.946 
		150.674,55.897 150.681,55.851 150.693,55.802 150.707,55.748 150.728,55.699 150.741,55.659 150.763,55.61 150.783,55.563 
		150.804,55.515 150.831,55.474 150.852,55.426 150.88,55.385 150.898,55.344 150.935,55.303 150.961,55.261 150.988,55.226 
		151.017,55.186 151.051,55.152 151.079,55.125 151.112,55.09 151.146,55.062 151.182,55.034 151.215,55.008 151.25,54.985 
		151.284,54.966 151.317,54.945 151.338,54.931 151.346,54.924 151.352,54.917 151.366,54.91 151.373,54.903 167.732,44.34 
		168.116,44.566 168.131,44.573 168.137,44.581 168.15,44.587 168.171,44.594 168.192,44.608 168.214,44.615 168.232,44.622 
		168.239,44.622 168.261,44.629 168.274,44.629 168.281,44.629 168.287,44.635 168.295,44.635 170.017,45.638 170.03,45.644 
		170.051,45.657 170.071,45.664 170.093,45.671 170.113,45.678 170.127,45.678 170.127,47.057 170.127,47.063 162.566,51.708 
		162.548,51.722 162.534,51.729 162.519,51.735 162.492,51.743 162.465,51.755 162.438,51.769 162.403,51.782 162.376,51.79 
		162.34,51.797 162.307,51.804 162.272,51.811 162.238,51.817 162.204,51.824 162.17,51.824 162.135,51.832 162.101,51.832 
		162.066,51.832 162.024,51.832 161.99,51.832 161.964,51.824 161.93,51.824 161.896,51.817 161.868,51.811 161.841,51.811 
		161.813,51.797 161.786,51.79 161.758,51.782 161.738,51.775 161.716,51.769 161.696,51.755 161.688,51.755 161.684,51.75 
		161.676,51.735 161.669,51.729 161.662,51.715 161.655,51.701 161.655,51.687 161.647,51.68 161.642,51.659 161.629,51.646 
		161.629,51.633 161.621,51.619 161.613,51.604 161.608,51.591 161.608,51.577 161.6,51.563 161.593,51.549 161.593,51.535 
		161.586,51.523 161.579,51.516 161.579,51.502 161.579,51.495 161.573,51.488 161.573,51.481 161.573,51.475 161.566,51.467 
		161.566,51.453 161.561,51.435 161.553,51.411 161.546,51.393 161.531,51.371 161.524,51.364 161.524,51.357 161.538,51.351 
		161.546,51.344 161.553,51.337 161.561,51.329 161.573,51.322 161.573,51.311 161.579,51.302 161.586,51.297 161.593,51.282 
		161.6,51.275 161.608,51.269 161.613,51.255 161.613,51.248 161.621,51.234 161.621,51.228 161.621,51.213 161.629,51.199 
		161.629,51.193 161.629,51.18 161.629,51.173 161.629,51.159 161.629,51.146 161.629,51.139 161.629,51.124 161.629,51.11 
		161.621,51.104 161.621,51.092 161.613,51.084 161.613,51.07 161.608,51.063 161.6,51.05 161.593,51.043 161.586,51.028 
		161.579,51.021 161.573,51.008 161.566,51.001 161.561,50.994 161.553,50.986 161.546,50.979 161.531,50.973 161.524,50.968 
		161.519,50.959 161.504,50.959 161.498,50.954 161.49,50.946 161.477,50.946 161.47,50.939 161.456,50.939 161.449,50.939 
		161.436,50.933 161.423,50.933 161.414,50.933 161.401,50.933 161.396,50.933 161.381,50.933 161.373,50.933 161.36,50.939 
		161.347,50.939 161.339,50.946 161.326,50.946 161.319,50.954 161.305,50.959 161.278,50.973 161.25,50.994 161.216,51.015 
		161.194,51.035 161.176,51.057 161.155,51.084 161.134,51.104 161.119,51.124 161.106,51.152 161.085,51.152 161.059,51.159 
		161.038,51.166 161.017,51.173 161.004,51.18 160.983,51.187 160.962,51.199 160.941,51.206 160.928,51.221 160.907,51.234 
		160.894,51.248 160.88,51.262 160.865,51.275 160.852,51.289 160.839,51.302 160.824,51.322 160.813,51.337 160.804,51.357 
		160.791,51.371 160.784,51.393 160.776,51.411 160.771,51.435 160.764,51.453 160.757,51.467 160.751,51.488 160.751,51.507 
		160.742,51.53 160.742,51.556 160.742,51.577 160.742,51.598 160.742,51.619 160.751,51.64 160.751,51.659 160.757,51.68 
		160.757,51.687 160.764,51.701 160.764,51.708 160.764,51.715 160.771,51.729 160.776,51.75 160.776,51.764 160.784,51.775 
		160.784,51.797 160.797,51.811 160.797,51.832 160.813,51.857 160.818,51.88 160.824,51.899 160.831,51.928 160.846,51.947 
		160.852,51.976 160.865,52.002 160.88,52.029 160.888,52.058 160.907,52.084 160.922,52.111 160.935,52.14 160.954,52.165 
		160.97,52.2 160.99,52.229 161.011,52.264 161.03,52.289 161.051,52.313 161.065,52.331 161.079,52.345 161.093,52.366 
		161.106,52.38 161.155,52.42 161.21,52.462 161.257,52.497 161.313,52.524 161.367,52.551 161.423,52.579 161.477,52.6 
		161.538,52.62 161.593,52.634 161.647,52.647 161.71,52.66 161.765,52.675 161.827,52.683 161.881,52.688 161.943,52.695 
		162.005,52.695 162.066,52.695 162.122,52.695 162.184,52.695 162.246,52.688 162.3,52.683 162.362,52.675 162.424,52.66 
		162.485,52.647 162.54,52.641 162.602,52.62 162.657,52.6 162.719,52.586 162.772,52.558 162.828,52.537 162.883,52.511 
		162.944,52.482 162.958,52.469 163,52.448 170.387,47.9 170.401,47.907 170.422,47.914 170.441,47.922 170.463,47.929 
		170.478,47.934 170.504,47.934 170.524,47.934 170.545,47.934 170.564,47.934 170.585,47.934 170.605,47.934 170.627,47.929 
		170.647,47.922 170.669,47.914 170.689,47.907 170.71,47.9 170.729,47.894 170.742,47.887 170.766,47.872 170.777,47.858 
		170.799,47.852 170.805,47.852 	"/>
	<polygon fill="#BCBCBC" points="170.127,43.744 170.127,44.711 169.221,44.182 170.127,43.613 170.127,43.627 170.127,43.682 
		170.127,43.702 170.127,43.723 	"/>
	<polygon fill="#8C8C8C" points="167.457,72.607 167.457,72.744 166.759,73.14 166.759,54.739 166.759,54.712 166.759,54.691 
		166.759,54.67 166.751,54.651 166.745,54.63 166.738,54.609 166.73,54.588 166.725,54.567 166.717,54.549 166.711,54.534 
		166.696,54.512 166.69,54.492 166.677,54.479 166.662,54.467 166.648,54.443 166.635,54.43 166.62,54.418 166.606,54.403 
		166.595,54.39 166.573,54.376 166.56,54.369 166.552,54.363 167.457,53.78 167.457,53.785 167.457,72.283 167.452,72.304 
		167.444,72.32 167.437,72.345 167.437,72.367 167.431,72.384 167.431,72.408 167.431,72.433 167.431,72.457 167.431,72.476 
		167.431,72.498 167.431,72.517 167.437,72.537 167.444,72.562 167.452,72.585 167.457,72.601 	"/>
	<polygon fill="#AEAEAE" points="166.1,43.388 167.293,44.087 151.126,54.525 151.098,54.541 151.098,54.549 151.064,54.561 
		151.009,54.596 150.961,54.63 150.907,54.663 150.858,54.705 150.81,54.746 150.77,54.787 150.728,54.835 150.681,54.882 
		150.646,54.931 150.605,54.98 150.563,55.034 150.529,55.083 150.495,55.137 150.467,55.199 150.433,55.254 150.406,55.31 
		150.378,55.37 150.352,55.426 150.33,55.486 150.31,55.548 150.289,55.61 150.269,55.673 150.247,55.734 150.233,55.795 
		150.22,55.856 150.214,55.919 150.2,55.981 150.192,56.043 150.192,56.111 150.187,56.173 150.187,56.199 150.187,56.213 
		150.187,56.222 150.187,56.233 150.187,73.539 147.319,71.796 147.298,71.791 147.292,71.783 147.278,71.775 147.256,71.769 
		147.256,71.763 147.256,71.755 147.25,71.755 147.25,71.75 147.243,71.75 147.243,71.74 147.236,71.736 147.236,71.728 
		147.229,71.722 147.229,71.714 147.229,71.707 147.222,71.701 147.222,71.695 147.222,71.679 147.222,71.673 147.216,71.66 
		147.216,71.646 147.216,71.632 147.216,71.613 147.216,71.591 147.216,71.572 147.216,54.156 147.216,54.128 147.216,54.107 
		147.222,54.081 147.222,54.046 147.229,54.005 147.236,53.965 147.243,53.923 147.256,53.881 147.264,53.841 147.278,53.8 
		147.298,53.758 147.311,53.711 147.332,53.669 147.347,53.629 147.367,53.58 147.389,53.54 147.415,53.498 147.436,53.451 
		147.463,53.409 147.491,53.367 147.512,53.327 147.545,53.286 147.566,53.251 147.599,53.209 147.627,53.176 147.655,53.141 
		147.683,53.106 147.716,53.073 147.744,53.038 147.771,53.011 147.799,52.984 147.813,52.971 147.826,52.956 149.056,52.188 
		149.157,52.235 149.179,52.249 149.198,52.256 149.219,52.264 149.239,52.271 149.268,52.277 149.287,52.284 149.308,52.284 
		149.328,52.284 149.349,52.284 149.37,52.284 149.391,52.284 149.418,52.284 149.438,52.277 149.459,52.277 149.479,52.271 
		149.5,52.264 149.521,52.256 149.541,52.249 149.554,52.235 149.576,52.229 149.596,52.216 149.61,52.2 149.63,52.188 
		151.277,51.139 151.352,51.199 151.373,51.213 151.394,51.221 151.414,51.234 151.428,51.248 151.456,51.255 151.475,51.262 
		151.496,51.269 151.517,51.275 151.537,51.282 151.558,51.282 151.579,51.289 151.6,51.289 151.62,51.289 151.64,51.289 
		151.661,51.289 151.681,51.282 151.709,51.282 151.729,51.275 151.75,51.269 151.771,51.262 151.791,51.255 151.812,51.248 
		151.826,51.234 151.847,51.228 151.859,51.221 151.866,51.213 153.623,50.088 153.664,50.102 153.684,50.108 153.712,50.116 
		153.733,50.116 153.754,50.123 153.774,50.123 153.801,50.123 153.822,50.123 153.843,50.123 153.863,50.123 153.883,50.116 
		153.905,50.116 153.925,50.108 153.945,50.102 153.966,50.095 153.987,50.088 154.007,50.076 154.026,50.067 154.041,50.055 
		154.048,50.055 154.063,50.041 155.695,48.951 155.79,48.998 155.812,49.005 155.832,49.012 155.853,49.026 155.873,49.026 
		155.893,49.031 155.913,49.04 155.941,49.04 155.962,49.047 155.983,49.047 156.002,49.047 156.023,49.04 156.044,49.04 
		156.064,49.04 156.086,49.031 156.104,49.026 156.127,49.019 156.146,49.012 156.167,49.005 156.188,48.998 156.208,48.984 
		156.216,48.977 156.223,48.977 156.229,48.97 156.243,48.963 156.264,48.951 157.896,47.9 158.13,48.106 158.15,48.12 
		158.164,48.134 158.185,48.148 158.203,48.162 158.227,48.167 158.245,48.176 158.267,48.188 158.287,48.195 158.308,48.195 
		158.328,48.202 158.35,48.209 158.37,48.209 158.389,48.209 158.41,48.209 158.431,48.209 158.459,48.209 158.479,48.209 
		158.499,48.202 158.521,48.202 158.541,48.195 158.562,48.188 158.582,48.181 158.603,48.167 158.616,48.162 158.638,48.148 
		158.65,48.139 158.658,48.139 158.679,48.127 158.691,48.113 158.713,48.1 	"/>
	<polygon fill="#8C8C8C" points="165.922,55.274 165.922,74.166 165.223,74.609 165.223,56.315 165.223,56.297 165.223,56.275 
		165.223,56.25 165.215,56.227 165.209,56.208 165.201,56.187 165.201,56.166 165.188,56.146 165.181,56.132 165.175,56.111 
		165.16,56.091 165.154,56.077 165.141,56.057 165.126,56.043 165.112,56.028 165.099,56.008 165.084,55.996 165.07,55.981 
		165.058,55.975 165.036,55.961 165.023,55.946 165.002,55.939 164.989,55.933 164.981,55.926 164.968,55.919 164.947,55.912 
		164.94,55.905 	"/>
	<polygon fill="#8C8C8C" points="164.377,56.777 164.377,75.673 163.687,76.105 163.687,57.813 163.687,57.791 163.687,57.771 
		163.687,57.751 163.679,57.729 163.673,57.702 163.665,57.688 163.657,57.667 163.651,57.646 163.645,57.627 163.637,57.606 
		163.623,57.594 163.618,57.571 163.603,57.559 163.59,57.538 163.576,57.524 163.563,57.511 163.548,57.49 163.535,57.482 
		163.521,57.47 163.5,57.455 163.487,57.443 163.466,57.436 163.452,57.422 163.433,57.415 163.411,57.408 163.397,57.408 
		163.397,57.401 	"/>
	<polygon fill="#8C8C8C" points="162.843,58.28 162.843,77.169 162.074,77.646 162.074,59.308 162.066,59.294 162.066,59.287 
		162.066,59.266 162.066,59.247 162.061,59.226 162.053,59.205 162.053,59.184 162.045,59.163 162.039,59.143 162.024,59.13 
		162.019,59.109 162.012,59.088 161.998,59.074 161.984,59.054 161.977,59.039 161.964,59.019 161.951,59.006 161.93,58.992 
		161.916,58.979 161.903,58.965 161.881,58.95 161.874,58.95 161.868,58.938 161.841,58.916 	"/>
	<polygon fill="#8C8C8C" points="161.23,59.679 161.23,78.656 160.077,79.386 160.069,79.386 160.064,79.371 160.042,79.357 
		160.022,79.341 160.001,79.33 159.98,79.314 159.954,79.294 159.934,79.287 159.92,79.273 159.912,79.273 159.899,79.259 
		159.886,79.259 159.878,79.253 159.859,79.246 159.612,79.095 159.612,79.087 159.612,61.64 159.612,61.626 159.612,61.591 
		159.612,61.551 159.618,61.502 159.625,61.453 159.632,61.406 159.646,61.359 159.652,61.311 159.666,61.264 159.687,61.208 
		159.7,61.159 159.721,61.11 159.742,61.064 159.761,61.016 159.783,60.961 159.81,60.912 159.831,60.865 159.859,60.818 
		159.886,60.77 159.912,60.728 159.946,60.681 159.975,60.639 160.001,60.59 160.037,60.55 160.069,60.51 160.098,60.475 
		160.133,60.432 160.167,60.399 160.2,60.363 160.236,60.33 160.269,60.296 160.297,60.269 160.311,60.254 160.331,60.241 
		160.345,60.234 	"/>
	<path fill="#1A1A1A" d="M184.352,39.828v-0.01l-0.002-0.011l-0.003-0.012l-0.005-0.011l-0.001-0.011l-0.005-0.01l-0.006-0.012
		l-0.006-0.011l-0.004-0.01l-0.008-0.01l-0.005-0.01l-0.009-0.009l-0.007-0.009l-0.009-0.008l-0.008-0.007l-0.01-0.008l-0.008-0.007
		l-0.009-0.006l-0.009-0.005l-0.01-0.008l-0.009-0.003l-0.011-0.004l-0.009-0.004l-0.012-0.005l-0.01-0.002l-0.01-0.003
		l-0.012-0.001l-0.012-0.002h-0.009h-0.012h-0.011l-0.011,0.002h-0.011l-0.011,0.003l-0.012,0.003l-0.01,0.003l-0.012,0.004
		l-0.011,0.003l-0.009,0.006l-0.01,0.007l-0.011,0.004l-4.527,2.91l-0.012,0.008l-0.008,0.007l-0.01,0.007l-0.006,0.009
		l-0.008,0.007l-0.009,0.008l-0.007,0.009l-0.008,0.009l-0.005,0.01l-0.006,0.011L179.4,42.66l-0.005,0.011l-0.002,0.009
		l-0.004,0.012l-0.005,0.011l-0.002,0.01l-0.001,0.011l-0.003,0.012l-0.002,0.01v0.034l0.001,0.011l0.001,0.013l0.003,0.009
		l0.001,0.013l0.004,0.011l0.004,0.011l0.005,0.012l0.003,0.009l0.005,0.011l0.007,0.011l0.006,0.01l0.008,0.01l0.008,0.009
		l0.017,0.017l0.006,0.007l0.009,0.008l0.009,0.006l0.009,0.007l0.009,0.007l0.011,0.005l0.009,0.005l0.01,0.004l0.011,0.004
		l0.01,0.003l0.012,0.003l0.012,0.001l0.01,0.003l0.009,0.001l0.012,0.001h0.01l0.012-0.001h0.012l0.011-0.002l0.011-0.002
		l0.01-0.003l0.012-0.003l0.01-0.003l0.011-0.005l0.01-0.005l0.01-0.006l0.011-0.005l4.527-2.91l0.009-0.006l0.01-0.009l0.01-0.006
		l0.008-0.008l0.009-0.009l0.007-0.008l0.008-0.009l0.006-0.01l0.007-0.009l0.005-0.01l0.004-0.01l0.006-0.01l0.004-0.011
		l0.004-0.012l0.004-0.009l0.004-0.012l0.002-0.01v-0.011v-0.013l0.003-0.01v-0.012V39.84L184.352,39.828z M186.015,45.231
		l0.015-0.007l0.018-0.012l0.016-0.01l0.016-0.014l0.017-0.012l0.016-0.015l0.016-0.014l0.014-0.016l0.012-0.015l0.014-0.018
		l0.012-0.016l0.011-0.019l0.011-0.019l0.009-0.019l0.009-0.02l0.008-0.019l0.006-0.02l0.005-0.021l0.006-0.022l0.002-0.021
		l0.005-0.021v-0.023l0.002-0.021v-0.765l4.576-3.028l0.02-0.014l0.014-0.014l0.019-0.015l0.015-0.014l0.015-0.015l0.013-0.017
		l0.015-0.017l0.011-0.017l0.012-0.019l0.01-0.018l0.01-0.019l0.01-0.021l0.006-0.018l0.007-0.021l0.006-0.02l0.004-0.021
		l0.003-0.02l0.006-0.021v-0.021v-0.026l0.004-0.004v-4.572l-0.001-0.023l-0.003-0.021l-0.007-0.042l-0.004-0.022l-0.005-0.02
		l-0.008-0.021l-0.007-0.02l-0.009-0.019l-0.009-0.02l-0.01-0.018l-0.012-0.019l-0.012-0.017l-0.011-0.017l-0.028-0.03l-0.014-0.015
		l-0.017-0.013l-0.016-0.013l-0.017-0.013l-0.017-0.011l-0.018-0.011l-0.019-0.01l-0.019-0.009l-1.504-0.814l-0.021-0.011
		l-0.019-0.009l-0.021-0.008l-0.021-0.006l-0.019-0.006l-0.021-0.004l-0.021-0.002l-0.021-0.004h-0.021l-0.021-0.002l-0.018,0.002
		l-0.021,0.002l-0.021,0.002l-0.02,0.004l-0.02,0.004l-0.02,0.007l-0.018,0.005l-0.021,0.01l-0.017,0.009l-0.02,0.009l-0.017,0.011
		l-0.018,0.011l-0.013,0.008l-4.217,2.761l-1.726-0.961l-0.012-0.007l-0.036-0.02l-0.04-0.018l-0.036-0.016l-0.038-0.016
		l-0.036-0.017l-0.039-0.013l-0.039-0.014l-0.04-0.012l-0.038-0.01l-0.038-0.01l-0.04-0.008l-0.041-0.006l-0.038-0.007l-0.042-0.004
		l-0.042-0.002l-0.039-0.003l-0.041,0.003l-0.04,0.002l-0.04,0.004l-0.039,0.007l-0.044,0.008l-0.038,0.01l-0.04,0.009l-0.035,0.013
		l-0.042,0.015l-0.035,0.015l-0.037,0.015l-0.038,0.019l-0.034,0.019l-0.033,0.02l-0.035,0.022l-0.033,0.021l0,0l-5.78,3.55
		l-0.413-0.239l-0.018-0.011l-0.019-0.01l-0.008-0.004l-0.014-0.005l-0.04-0.021l-0.042-0.017l-0.04-0.016l-0.039-0.017
		l-0.042-0.012l-0.041-0.015l-0.042-0.012l-0.039-0.009l-0.045-0.01l-0.042-0.007l-0.04-0.007l-0.043-0.005l-0.045-0.005h-0.04
		l-0.042-0.002l-0.085,0.002l-0.042,0.005l-0.042,0.005l-0.042,0.007l-0.043,0.008l-0.042,0.01l-0.038,0.011l-0.043,0.016
		l-0.044,0.014l-0.036,0.015l-0.04,0.019l-0.039,0.02l-0.038,0.021l-0.037,0.023l-0.036,0.022l0.013-0.007l-0.013,0.008v-0.001
		l-0.019,0.014h-0.002l-3.364,2.142l-0.012,0.006l-0.04,0.031l-0.038,0.03l-0.038,0.032l-0.035,0.035l-0.032,0.033l-0.032,0.038
		l-0.029,0.038l-0.027,0.039l-0.029,0.04l-0.021,0.035l-0.008-0.002l-0.021-0.008l-0.019-0.007l-0.02-0.007l-0.022-0.002
		l-0.02-0.006l-0.023-0.002l-0.021-0.002h-0.022h-0.022l-0.02,0.002l-0.021,0.003l-0.022,0.005l-0.022,0.004l-0.021,0.007
		l-0.021,0.007l-0.019,0.008l-0.021,0.01l-0.023,0.011l-0.019,0.01l-1.634,1.023l-2.034-1.195h-0.001v-0.001l-0.02-0.01l-0.019-0.01
		l-0.021-0.009l-0.019-0.007l-0.023-0.006l-0.021-0.007l-0.02-0.004l-0.021-0.003l-0.022-0.004l-0.021-0.001h-0.021h-0.021
		l-0.021,0.003l-0.022,0.004l-0.021,0.003l-0.021,0.005l-0.021,0.007l-0.021,0.007l-0.021,0.009l-0.021,0.01l-0.02,0.012
		l-0.019,0.011l-7.409,4.731l-0.211-0.18l-0.004-0.005l-0.015-0.016l-0.02-0.013l-0.017-0.014l-0.018-0.013l-0.019-0.012l-0.02-0.01
		l-0.019-0.011l-0.021-0.008l-0.02-0.009l-0.021-0.005l-0.02-0.007l-0.022-0.003l-0.021-0.004l-0.019-0.001l-0.024-0.004h-0.021
		h-0.021l-0.021,0.004l-0.021,0.003l-0.021,0.004l-0.021,0.005l-0.021,0.007l-0.021,0.007l-0.021,0.009l-0.021,0.009l-0.019,0.012
		l-0.021,0.011l-1.729,1.111l-0.084-0.042h-0.002l-0.02-0.011l-0.021-0.009l-0.019-0.009l-0.02-0.007l-0.022-0.007l-0.019-0.003
		l-0.022-0.006l-0.022-0.004h-0.019l-0.023-0.001h-0.021l-0.021,0.001h-0.021l-0.021,0.006l-0.021,0.004l-0.021,0.007l-0.021,0.005
		l-0.021,0.007L155.481,48l-0.021,0.009l-0.02,0.013l-0.02,0.012l-1.681,1.127l-0.007-0.002l-0.009-0.004l-0.021-0.009l-0.021-0.005
		l-0.02-0.007l-0.022-0.004l-0.02-0.003l-0.021-0.002l-0.021-0.002l-0.023-0.001l-0.021,0.003h-0.021l-0.021,0.004l-0.021,0.003
		l-0.021,0.007l-0.021,0.005l-0.021,0.006l-0.021,0.011l-0.021,0.009l-0.021,0.012l-0.019,0.012l-1.683,1.082l-0.055-0.044
		l-0.015-0.012l-0.018-0.014l-0.019-0.015l-0.019-0.01l-0.02-0.011l-0.019-0.009l-0.021-0.009l-0.021-0.009l-0.021-0.005
		l-0.02-0.007l-0.021-0.004l-0.021-0.003l-0.023-0.002l-0.02-0.004h-0.022l-0.022,0.002l-0.021,0.002l-0.021,0.004l-0.022,0.003
		l-0.021,0.005l-0.021,0.007l-0.022,0.007l-0.02,0.009l-0.021,0.01l-0.021,0.012l-0.019,0.01l-1.73,1.113l-0.072-0.038h-0.001
		l-0.02-0.011l-0.019-0.011l-0.021-0.008l-0.021-0.007l-0.02-0.007l-0.022-0.006l-0.019-0.005l-0.022-0.004l-0.021-0.002
		l-0.02-0.004h-0.023h-0.021l-0.021,0.004l-0.021,0.002l-0.021,0.004l-0.022,0.005l-0.021,0.007l-0.021,0.007l-0.022,0.007
		l-0.02,0.011l-0.021,0.011l-0.019,0.012l-1.457,0.915l-0.018,0.014l-0.009,0.005l-0.018,0.016l-0.05,0.038l-0.048,0.044
		l-0.046,0.043l-0.047,0.046l-0.043,0.049l-0.045,0.047l-0.044,0.053l-0.041,0.052l-0.043,0.052l-0.041,0.056l-0.039,0.055
		l-0.039,0.058l-0.037,0.059l-0.037,0.062l-0.036,0.059l-0.032,0.063l-0.034,0.061l-0.031,0.064l-0.031,0.064l-0.029,0.065
		l-0.025,0.065l-0.026,0.069l-0.022,0.066l-0.021,0.069l-0.021,0.069l-0.018,0.072l-0.017,0.072l-0.012,0.07l-0.009,0.071
		l-0.009,0.076l-0.004,0.075l-0.002,0.04v0.009v0.023v17.459l0.001,0.047l0.001,0.043l0.005,0.045l0.006,0.041l0.005,0.043
		l0.009,0.041l0.009,0.047l0.01,0.043L146.379,72l0.013,0.041l0.016,0.037l0.017,0.039l0.018,0.035l0.018,0.037l0.02,0.029
		l0.02,0.033l0.021,0.031l0.021,0.033l0.028,0.029l0.021,0.027l0.022,0.025l0.025,0.027l0.027,0.023l0.025,0.023l0.023,0.02
		l0.027,0.02l0.023,0.02l0.025,0.014l0.028,0.018l0.024,0.02l0.023,0.014l0.009,0.004l3.519,2.137l0.008,0.006l0.018,0.01
		l0.019,0.014l0.02,0.01l0.021,0.008l0.019,0.01l0.022,0.008l0.021,0.008l0.021,0.002l0.023,0.002l0.021,0.004l0.022,0.002h0.043
		l0.015-0.002h0.038l0.015-0.004h0.021h0.016l0.022-0.002h0.021l0.028-0.006l0.021-0.002l0.029-0.008l0.026-0.008l0.028-0.002
		l0.029-0.006l0.03-0.01l0.03-0.004l0.032-0.012l0.034-0.008l0.032-0.01l0.036-0.012l0.033-0.016l0.036-0.016l0.034-0.016
		l0.037-0.014l0.036-0.02l0.039-0.025l0.035-0.018l0.038-0.027h-0.001l3.833-2.406v4.768v0.008l0.001,0.012l0.001,0.023l0.003,0.023
		l0.004,0.025l0.002,0.004v0.006l0.003,0.008l0.003,0.008l0.001,0.018l0.005,0.01l0.003,0.023l0.006,0.016l0.004,0.018l0.005,0.021
		l0.008,0.023l0.008,0.023l0.008,0.025l0.009,0.027l0.008,0.027l0.009,0.023l0.009,0.033l0.014,0.027l0.01,0.031l0.016,0.033
		l0.013,0.027l0.018,0.035l0.018,0.033l0.019,0.033l0.022,0.033l0.022,0.039l0.027,0.029l0.033,0.041l0.034,0.035l0.047,0.043
		l0.043,0.029l0.016,0.006l0.016,0.014l3.706,2.234l0.014,0.01l0.02,0.016l0.021,0.016l0.019,0.01l0.02,0.016l0.019,0.01
		l0.021,0.018l0.02,0.014l0.02,0.014l0.02,0.008l0.024,0.018l0.022,0.012l0.024,0.02l0.02,0.008l0.029,0.016l0.027,0.01l0.032,0.016
		l0.029,0.01l0.036,0.01l0.038,0.01l0.038,0.01l0.04,0.006h0.08l0.041-0.002l0.046-0.004l0.035-0.01l0.039-0.012l0.034-0.01
		l0.036-0.014l0.033-0.012l0.023-0.014l0.02-0.01l0.019-0.014l1.456-0.914l0.021-0.012l0.018-0.016l0.019-0.012l0.017-0.016
		l0.015-0.016l0.017-0.018l0.014-0.021l0.013-0.012l0.012-0.023l0.012-0.02l0.01-0.016l0.011-0.02l0.007-0.023l0.008-0.018
		l0.007-0.023l0.006-0.02l0.005-0.025l0.004-0.018l0.002-0.023l0.002-0.025v-0.02v-0.02l-0.002-0.025l-0.003-0.021l-0.003-0.021
		l-0.006-0.02l-0.005-0.023l-0.007-0.02v-0.053l1.429-0.9l0.019-0.012l0.02-0.014l0.018-0.014l0.017-0.014l0.017-0.018l0.014-0.018
		l0.014-0.018l0.015-0.018l0.011-0.018l0.013-0.021l0.009-0.018l0.011-0.018l0.009-0.023l0.006-0.02l0.008-0.021l0.007-0.021
		l0.002-0.021l0.004-0.02l0.003-0.02l0.001-0.025l0.003-0.023l-0.003-0.023l-0.001-0.02l-0.003-0.021l-0.004-0.021l-0.006-0.025
		l-0.003-0.018l-0.009-0.023v-0.104l1.35-0.85l0.019-0.012l0.019-0.01l0.018-0.016l0.017-0.016l0.017-0.016l0.015-0.02l0.015-0.014
		l0.013-0.018l0.013-0.02l0.01-0.021l0.013-0.014l0.008-0.023l0.009-0.02l0.006-0.021l0.008-0.023l0.005-0.021l0.007-0.018
		l0.001-0.021l0.004-0.025l0.003-0.02v-0.023l-0.003-0.023v-0.021l-0.004-0.023l-0.001-0.018l-0.007-0.025l-0.006-0.023
		l-0.007-0.018v-0.105l1.349-0.844l0.019-0.016l0.017-0.01l0.02-0.018l0.017-0.014l0.017-0.018l0.015-0.016l0.015-0.018l0.013-0.018
		l0.013-0.02l0.011-0.016l0.011-0.018l0.01-0.023l0.008-0.021l0.006-0.021l0.008-0.018l0.007-0.025l0.007-0.041l0.003-0.021
		l0.003-0.021v-0.049l-0.003-0.02l-0.003-0.023l-0.003-0.021l-0.006-0.023l-0.006-0.018l-0.008-0.023v-0.096l1.334-0.766l0.02-0.01
		l0.019-0.01l0.036-0.027l0.017-0.018l0.014-0.016l0.017-0.018l0.014-0.018l0.013-0.016l0.012-0.021l0.012-0.018l0.01-0.018
		l0.01-0.021l0.008-0.021l0.008-0.02l0.006-0.021l0.006-0.02l0.004-0.023l0.005-0.021l0.002-0.023l0.002-0.021v-0.02l-0.002-0.023
		l-0.001-0.025l-0.004-0.02l-0.002-0.023l-0.008-0.021l-0.007-0.023l-0.005-0.016v-0.158l7.097-4.616l0.021-0.018l0.017-0.013
		l0.018-0.016l0.017-0.015l0.015-0.013l0.015-0.021l0.014-0.02l0.014-0.015l0.011-0.02l0.014-0.018l0.003-0.008l2.206-4.132
		l4.994-3.179l0.02-0.012l0.018-0.014l0.017-0.016l0.018-0.014l0.016-0.019l0.015-0.017l0.015-0.016l0.014-0.018l0.013-0.02
		l0.01-0.02l0.004-0.003l0.728-1.329l0.012-0.022l0.009-0.021l0.009-0.022l0.006-0.021l0.007-0.021l0.005-0.022l0.004-0.021
		l0.003-0.024l0.004-0.043v-0.007v-0.889l2.104-1.395l0.008-0.006l0.018-0.013l0.042-0.03l0.039-0.033l0.038-0.035l0.036-0.038
		l0.03-0.035l0.031-0.042l0.028-0.04l0.025-0.039l0.021-0.042l0.021-0.04l0.014-0.044l0.017-0.042l0.015-0.043l0.011-0.039
		l0.012-0.041l0.01-0.039l0.007-0.042l0.006-0.036l0.006-0.038l0.006-0.038l0.001-0.037l0.006-0.038l0.001-0.037l0.001-0.036
		l0.004-0.033v-0.067l0.001-0.037v-0.063l0.002-0.035v-1.624l4.576-3.03l0.02-0.015l0.014-0.012l0.019-0.014l0.015-0.015
		l0.015-0.018l0.013-0.014l0.015-0.018l0.011-0.018l0.012-0.018l0.01-0.016l0.01-0.021l0.01-0.02l0.006-0.019l0.007-0.02
		l0.006-0.021l0.004-0.02l0.003-0.021l0.006-0.02v-0.021v-0.028l0.004-0.004V45.84l-0.001-0.021l-0.003-0.021l-0.007-0.044
		l-0.004-0.021l-0.005-0.021l-0.008-0.02l-0.007-0.02l-0.009-0.019l-0.009-0.02l-0.01-0.019l-0.012-0.018l-0.012-0.017l-0.011-0.017
		l-0.015-0.016l-0.014-0.015l-0.014-0.015l-0.017-0.013l-0.016-0.014l-0.017-0.012l-0.017-0.012L190.8,45.46l-0.019-0.009
		l-0.019-0.009l-1.416-0.811l-0.019-0.01l-0.02-0.009l-0.02-0.008l-0.021-0.009l-0.019-0.005l-0.021-0.005l-0.021-0.004
		l-0.021-0.003l-0.018-0.002h-0.021h-0.021l-0.021,0.001l-0.02,0.003l-0.02,0.003l-0.021,0.005l-0.02,0.005l-0.018,0.006
		l-0.021,0.008l-0.019,0.007l-0.02,0.01l-0.017,0.01l-0.018,0.011l-0.004,0.003l-3.797,2.438v-1.269L186.015,45.231z
		 M190.178,40.451l-3.929,2.602v-2.782l-0.003-0.056l-0.001-0.052l-0.005-0.056l-0.007-0.052l-0.009-0.054l-0.01-0.05l-0.011-0.053
		l-0.012-0.051L186.18,39.8l-0.015-0.049l-0.014-0.049l-0.02-0.047l-0.017-0.048l-0.019-0.048l-0.02-0.045l-0.018-0.043
		l-0.018-0.047l-0.023-0.046l-0.021-0.042l-0.021-0.045l-0.021-0.042l-0.021-0.042l-0.021-0.038h0.004l0.01-0.001l0.012-0.001
		l0.011-0.002l0.01-0.003l0.013-0.003l0.009-0.002l0.012-0.004l0.01-0.005l0.011-0.006l0.01-0.004l4.156-2.506V40.451z
		 M189.081,35.781l0.856,0.463l-4.144,2.497l-0.008,0.007l-0.011,0.006l-0.009,0.008l-0.007,0.007l-0.018,0.017l-0.007,0.009
		l-0.006,0.009l-0.005,0.009l-0.007,0.009l-0.002,0.004l-0.007-0.011l-0.01-0.023l-0.021-0.041l-0.024-0.038l-0.022-0.038
		l-0.024-0.039l-0.022-0.037l-0.027-0.037l-0.025-0.036l-0.023-0.035l-0.028-0.037l-0.025-0.035l-0.026-0.031l-0.029-0.034
		l-0.024-0.034l-0.029-0.033l-0.026-0.031l-0.008-0.006L189.081,35.781z M175.713,41.212l0.799,0.465l-2.77,1.722l-0.009,0.008
		l-0.009,0.005l-0.01,0.007l-0.005,0.007l-0.74-0.432L175.713,41.212z M178.511,44.229l0.003,0.022l0.005,0.022l0.004,0.021
		l0.005,0.021l0.009,0.02l0.007,0.022l0.01,0.019l0.02,0.038l0.011,0.021l0.012,0.019l0.016,0.017l0.003,0.008v0.377l-2.751,1.834
		v-0.112v-0.002l-0.001-0.036l-0.001-0.053l-0.002-0.052l-0.003-0.051l-0.006-0.054l-0.005-0.053l-0.006-0.053l-0.007-0.053
		l-0.009-0.054l-0.01-0.054l-0.008-0.053l-0.012-0.054l-0.012-0.052l-0.013-0.053l-0.013-0.053l-0.013-0.051l-0.009-0.033
		l0.006-0.002l0.01-0.007l0.01-0.006l2.782-1.856l0.006,0.038l0.012,0.045l0.005,0.027l-0.008,0.012l-0.01,0.021l-0.009,0.021
		l-0.009,0.022l-0.006,0.021l-0.006,0.021l-0.005,0.021l-0.002,0.022l-0.002,0.021l-0.001,0.024v0.043L178.511,44.229z
		 M179.856,45.961l-0.001-0.021l-0.003-0.021l-0.006-0.02l-0.007-0.021l-0.008-0.021l-0.007-0.02l-0.008-0.021l-0.009-0.019
		l-0.013-0.021l-0.013-0.019l-0.011-0.017l-0.015-0.018l-0.013-0.017l-0.016-0.015l-0.015-0.015l-0.017-0.013l-0.016-0.013
		l-0.018-0.012l-0.018-0.011l-0.02-0.01l-0.017-0.01l-0.019-0.009l-0.02-0.005l-0.021-0.007l-0.019-0.005l-0.021-0.005l-0.019-0.002
		l-0.02-0.002l-0.019-0.003v-0.563l2.426,1.459l-4.279,2.724l-1.188-0.734l3.247-2.086l0.018-0.012l0.019-0.014l0.015-0.014
		l0.016-0.015l0.014-0.015l0.016-0.017l0.013-0.015l0.011-0.018l0.012-0.019l0.012-0.017l0.009-0.02l0.01-0.018l0.008-0.02
		l0.007-0.021l0.006-0.019l0.005-0.02l0.004-0.021l0.003-0.021l0.004-0.021V45.98L179.856,45.961z M175.862,47.796v-0.569
		l0.02-0.007l0.01-0.006l0.011-0.005l0.009-0.005l0.011-0.005l2.691-1.797v0.604l0.003,0.021L175.862,47.796z M175.578,45.275
		l-0.014-0.028l-0.021-0.048l-0.022-0.046l-0.023-0.048l-0.023-0.044l-0.024-0.044l-0.023-0.042l-0.006-0.011l-0.029-0.047
		l-0.033-0.047l-0.031-0.047l-0.032-0.047l-0.03-0.045l-0.03-0.045l-0.03-0.045l-0.033-0.044l-0.026-0.036l0.007-0.004l0.011-0.004
		l0.011-0.003l0.008-0.007l0.011-0.006l2.82-1.832l0.004,0.004l0.024,0.032l0.027,0.031l0.025,0.032l0.024,0.034l0.024,0.034
		l0.024,0.031l0.02,0.032l0.023,0.033l0.022,0.034l0.021,0.031l0.013,0.022l0.009,0.023l0.021,0.043l0.019,0.044l0.019,0.041
		l0.018,0.046l0.019,0.043l0.018,0.044l0.017,0.044l0.001,0.002L175.578,45.275z M174.954,44.149l-0.011,0.007l-0.009,0.008
		l-0.009,0.007l-0.008,0.008l-0.01,0.008l-0.007,0.008l-0.006,0.009l-0.005,0.01l-0.01,0.01l-0.003,0.008l-0.025-0.028l-0.035-0.036
		l-0.032-0.033l-0.033-0.033l-0.033-0.033l-0.034-0.031l-0.034-0.031l-0.034-0.028l-0.037-0.028l-0.034-0.026l-0.034-0.026
		l-0.036-0.023l-0.035-0.023l-0.038-0.021l-0.038-0.02l0.012,0.005l-0.223-0.129l2.806-1.746l0.494,0.289l0.021,0.01l0.018,0.012
		l0.022,0.01l0.021,0.016l0.023,0.015l0.024,0.016l0.022,0.018l0.028,0.019l0.023,0.021l0.024,0.02L174.954,44.149z M174.525,40.828
		l0.016-0.009l0.02-0.011l0.019-0.011l0.007-0.009l0.009-0.005l0.01-0.005l0.021-0.01l0.012-0.005l0.009-0.005h0.009l0.013-0.004
		l0.013-0.004l0.013-0.002l0.012-0.002l0.011-0.002l0.029-0.002l0.015,0.001l0.015-0.001l0.016,0.001l0.014,0.001l0.017,0.002
		l0.018,0.002l0.017,0.004l0.017,0.004l0.021,0.005l0.014,0.004l0.02,0.006l0.021,0.007l0.021,0.008l0.018,0.009l0.022,0.007
		l0.02,0.01l0.243,0.143l-2.74,1.78l-0.523-0.304L174.525,40.828z M170.965,43.604l0.003-0.035l0.002-0.037l0.004-0.033l0.004-0.035
		l0.006-0.035l0.003-0.032l0.007-0.029l0.005-0.032l0.009-0.03l0.006-0.028l0.008-0.028l0.011-0.028l0.006-0.022l0.009-0.026
		l0.009-0.023l0.009-0.021l0.011-0.022l0.009-0.018l0.012-0.019l0.01-0.017l0.01-0.016l0.008-0.015l0.011-0.013l0.01-0.011
		l0.005-0.007l0.009-0.011l0.008-0.005l0.005-0.008l0.007-0.005l0.006-0.002l-0.001-0.001l0.359-0.23l0.004,0.002l0.021,0.005
		l0.023,0.008l0.027,0.009l0.022,0.008l0.025,0.011l0.024,0.011l0.025,0.011l0.022,0.012l2.417,1.409l0.012,0.006l0.021,0.012
		l0.024,0.014l0.023,0.017l0.027,0.017l0.025,0.018l0.023,0.02l0.027,0.021l0.025,0.023l0.025,0.022l0.027,0.026l0.025,0.024
		l0.029,0.028l0.029,0.027l0.025,0.031l0.03,0.032l0.028,0.031l0.026,0.032l0.028,0.034l0.03,0.036l0.026,0.037l0.029,0.037
		l0.028,0.038l0.03,0.038l0.03,0.041l0.028,0.04l0.03,0.042l0.029,0.044l0.029,0.04l0.029,0.045l0.029,0.044l0.03,0.044l0.026,0.042
		l0.017,0.031l0.041,0.073l0.019,0.038l0.02,0.04l0.018,0.04l0.018,0.041l0.017,0.041l0.018,0.043l0.016,0.04l0.017,0.045
		l0.015,0.045l0.013,0.043l0.016,0.045l0.014,0.045l0.012,0.045l0.014,0.046l0.012,0.046l0.009,0.045l0.012,0.048l0.009,0.045
		l0.008,0.046l0.007,0.045l0.007,0.045l0.008,0.046l0.006,0.045l0.003,0.045l0.005,0.044l0.004,0.045l0.001,0.044l0.001,0.041v1.298
		l-1.809-1.117l-0.005-0.003l-0.02-0.011l-0.017-0.01l-0.019-0.01l-0.02-0.009l-0.018-0.005l-0.021-0.009l-0.018-0.003l-0.02-0.005
		l-0.021-0.002l-0.019-0.004h-0.02l-0.022-0.002l-0.02,0.002l-0.022,0.002l-0.018,0.002l-0.02,0.005l-0.021,0.004l-0.019,0.007
		l-0.021,0.006l-0.021,0.009l-0.018,0.008l-0.018,0.012l-0.021,0.009l-1.229,0.791l-0.958-0.556V43.68v-0.038V43.604z
		 M170.126,43.611v0.014l-0.003,0.055v1.027l-0.906-0.527L170.126,43.611z M150.604,54.981l-0.038,0.051l-0.035,0.053l-0.035,0.055
		l-0.031,0.057l-0.032,0.056l-0.028,0.058l-0.026,0.059l-0.025,0.058l-0.024,0.06l-0.043,0.122l-0.018,0.061l-0.017,0.063
		l-0.015,0.063l-0.013,0.063l-0.012,0.063l-0.011,0.064l-0.007,0.063l-0.006,0.064l-0.002,0.062v0.047l-0.001,0.003v17.319
		l-2.864-1.742l-0.02-0.01l-0.011-0.002l-0.002-0.004l-0.002-0.002l-0.007-0.002l-0.009-0.004l-0.005-0.006h-0.004l-0.003-0.004
		l-0.004-0.004l-0.001-0.004h-0.002l-0.002-0.002l-0.004-0.002l0,0l-0.002-0.004v-0.002l-0.003-0.002l-0.002-0.008l-0.004-0.006
		v-0.004l-0.003-0.004l-0.001-0.004l-0.002-0.006l-0.002-0.008l-0.003-0.006l-0.002-0.008l-0.002-0.01l-0.002-0.01l-0.002-0.012
		l-0.001-0.018v-0.012v-0.018V54.155v-0.037l0.004-0.035l0.003-0.037l0.006-0.038l0.008-0.042l0.008-0.039l0.011-0.042l0.011-0.042
		l0.014-0.043l0.016-0.044l0.015-0.042l0.021-0.045l0.018-0.044l0.02-0.043l0.021-0.044l0.024-0.043l0.025-0.042l0.021-0.044
		l0.026-0.04l0.026-0.042l0.028-0.04l0.026-0.04l0.03-0.038l0.027-0.037l0.029-0.034l0.029-0.033l0.028-0.033l0.032-0.031
		l0.029-0.029l0.027-0.026l0.027-0.024l0.008-0.009l1.219-0.766l0.102,0.052l0.022,0.01l0.021,0.009l0.021,0.009l0.021,0.006
		l0.021,0.005l0.021,0.005l0.021,0.004l0.021,0.002h0.021h0.023l0.02-0.002l0.023-0.002l0.021-0.003l0.021-0.006l0.021-0.005
		l0.019-0.005l0.021-0.008l0.021-0.009l0.019-0.01l0.02-0.009l0.017-0.011l0,0l1.682-1.081l0.078,0.061l0.02,0.013l0.02,0.014
		l0.019,0.011l0.02,0.01l0.021,0.011l0.021,0.009l0.021,0.005l0.021,0.007l0.021,0.004l0.021,0.005l0.021,0.002l0.021,0.002h0.021
		h0.021l0.022-0.002l0.021-0.002l0.021-0.005l0.021-0.004l0.02-0.007l0.021-0.005l0.02-0.007l0.02-0.011l0.021-0.009l0.019-0.01
		l0.009-0.007h0.003l1.764-1.133l0.042,0.014l0.023,0.007l0.021,0.006l0.021,0.004l0.022,0.003l0.022,0.002l0.022,0.002h0.021
		l0.022-0.002l0.021-0.004l0.042-0.007l0.021-0.006l0.019-0.005l0.021-0.009l0.021-0.006l0.018-0.011l0.021-0.011l0.017-0.013
		l0.005-0.001h0.001l1.647-1.104l0.094,0.047l0.021,0.011l0.021,0.01l0.021,0.008l0.021,0.007l0.021,0.004l0.022,0.005l0.021,0.003
		l0.021,0.002l0.021,0.002h0.021l0.022-0.004l0.021-0.001l0.021-0.004l0.019-0.005l0.021-0.005l0.021-0.008l0.02-0.007l0.021-0.007
		l0.019-0.011l0.02-0.01l0.014-0.008h0.003l1.668-1.072l0.236,0.202l0.018,0.014l0.019,0.014l0.02,0.013l0.019,0.011l0.02,0.012
		l0.022,0.009l0.02,0.009l0.021,0.007l0.021,0.005l0.02,0.006l0.022,0.003l0.021,0.002l0.021,0.002l0.021,0.001h0.021l0.021-0.003
		l0.021-0.002l0.021-0.003l0.021-0.004l0.021-0.007l0.021-0.005l0.02-0.01l0.02-0.007l0.019-0.012l0.021-0.009l0.011-0.007h0.001
		l7.455-4.762l1.191,0.701L151.121,54.53h-0.003l0,0l-0.019,0.013l0.019-0.013l-0.056,0.03l-0.054,0.035l-0.051,0.032l-0.049,0.038
		l-0.049,0.039l-0.047,0.041l-0.046,0.044l-0.043,0.047l-0.042,0.045l-0.04,0.049L150.604,54.981z M150.651,73.902L150.651,73.902
		l0.002-0.004l0.004,0.004H150.651z M156.077,57.736l-0.047,0.046l-0.046,0.053l-0.046,0.05l-0.042,0.053l-0.043,0.056l-0.039,0.054
		l-0.038,0.056l-0.04,0.06l-0.036,0.059l-0.036,0.062l-0.065,0.122l-0.03,0.064l-0.032,0.063l-0.026,0.063l-0.025,0.064
		l-0.025,0.066l-0.021,0.064l-0.024,0.067l-0.018,0.064l-0.018,0.066l-0.015,0.068l-0.014,0.067l-0.01,0.064l-0.007,0.069
		l-0.005,0.068l-0.005,0.067v11.65l-0.006,0.018l-0.003,0.018l-4.329,2.722l-0.016,0.006l-0.009,0.008l-0.021,0.014l-0.012,0.008
		l-0.011,0.004l-0.015,0.006l-0.013,0.006l-0.014,0.002l-0.013,0.004l-0.016,0.006l-0.014,0.008h-0.013l-0.018,0.008h-0.013
		l-0.016,0.002l-0.014,0.002l-0.009,0.006l-0.117-0.07l-0.001-0.023l-0.001-0.023l-0.003-0.027v-0.025v-0.023V56.187l0.004-0.047
		l0.004-0.047l0.006-0.049l0.007-0.048l0.008-0.05l0.011-0.051l0.012-0.049l0.014-0.047l0.015-0.05l0.017-0.047l0.018-0.047
		l0.019-0.049l0.021-0.047l0.021-0.046l0.022-0.043l0.024-0.046l0.025-0.041l0.025-0.042l0.029-0.04l0.026-0.04l0.029-0.039
		l0.029-0.036l0.032-0.033l0.03-0.033l0.031-0.031l0.068-0.058l0.033-0.024l0.034-0.022l0.036-0.022l0.035-0.018l0.011-0.007
		l0.009-0.006l0.01-0.007l0.007-0.005l16.384-10.579l0.401,0.235l0.02,0.013l0.02,0.009l0.022,0.01l0.022,0.007l0.019,0.007
		l0.022,0.006l0.022,0.004h0.004l1.726,1.003l0.018,0.009l0.021,0.011l0.02,0.008l0.02,0.008l0.021,0.006l0.01,0.002v1.382
		l-7.558,4.648l-0.022,0.01l-0.024,0.016l-0.026,0.011l-0.027,0.014l-0.03,0.009l-0.027,0.015l-0.033,0.009l-0.034,0.008
		l-0.065,0.014l-0.036,0.008l-0.034,0.003l-0.036,0.006l-0.035,0.002l-0.033,0.003l-0.037-0.001l-0.035,0.001l-0.034-0.003
		l-0.032-0.002l-0.034-0.004l-0.03-0.005l-0.03-0.008l-0.029-0.005l-0.026-0.007l-0.028-0.008l-0.022-0.01l-0.021-0.009
		l-0.022-0.009l-0.016-0.008l-0.015-0.007l-0.001-0.004l-0.007-0.009l-0.006-0.009l-0.008-0.012l-0.008-0.014l-0.004-0.015
		l-0.007-0.011l-0.008-0.017l-0.008-0.015l-0.004-0.014l-0.006-0.012l-0.004-0.015l-0.007-0.018l-0.005-0.014l-0.005-0.014
		l-0.005-0.013l-0.004-0.012l-0.003-0.012l-0.006-0.011l-0.003-0.011l-0.003-0.009v-0.007l-0.001-0.005l-0.004-0.006l-0.001-0.005
		v0.002l-0.001-0.01l0.001,0.008l-0.004-0.021l-0.009-0.021l-0.005-0.021l-0.011-0.02l-0.009-0.02l-0.009-0.014l0.001-0.001
		l0.01-0.006l0.01-0.009l0.009-0.005l0.016-0.016l0.013-0.018l0.009-0.009l0.005-0.011l0.005-0.009l0.005-0.01l0.006-0.009
		l0.002-0.011l0.005-0.012l0.003-0.009l0.004-0.013l0.001-0.011l0.003-0.01l0.001-0.013v-0.008v-0.013v-0.011v-0.012l-0.003-0.011
		l-0.002-0.013l-0.003-0.01l-0.002-0.012l-0.004-0.011l-0.005-0.011l-0.006-0.011l-0.005-0.012l-0.013-0.018l-0.006-0.011
		l-0.006-0.009l-0.007-0.008l-0.009-0.008l-0.008-0.009l-0.011-0.007l-0.007-0.007l-0.01-0.005l-0.009-0.005l-0.01-0.006
		l-0.01-0.005l-0.011-0.004l-0.009-0.004l-0.012-0.003l-0.01-0.004l-0.01-0.002l-0.012-0.001l-0.009-0.002h-0.013h-0.011h-0.01
		l-0.012,0.002l-0.011,0.001l-0.01,0.002l-0.022,0.006l-0.01,0.005l-0.012,0.004l-0.01,0.005l-0.031,0.016l-0.029,0.02l-0.027,0.024
		l-0.021,0.021l-0.021,0.022l-0.021,0.021l-0.021,0.022l-0.015,0.024l-0.016,0.021v0.002l-0.021,0.003l-0.023,0.006l-0.039,0.013
		l-0.019,0.008l-0.021,0.009l-0.018,0.011l-0.02,0.011l-0.018,0.011l-0.017,0.012l-0.016,0.014l-0.015,0.015l-0.015,0.014
		l-0.014,0.014l-0.015,0.016l-0.011,0.018l-0.013,0.017l-0.01,0.019l-0.011,0.019l-0.009,0.018l-0.009,0.019l-0.008,0.02
		l-0.005,0.02l-0.006,0.021l-0.006,0.02l-0.002,0.022l-0.003,0.02l-0.004,0.021v0.042l0.003,0.023l0.003,0.021l0.003,0.021
		l0.004,0.021l0.004,0.01l-0.001-0.002l0.005,0.009v0.011l0.003,0.008l0.009,0.028l0.004,0.016l0.005,0.018l0.004,0.016l0.008,0.019
		l0.006,0.021l0.008,0.021l0.008,0.023l0.01,0.021l0.007,0.023l0.011,0.025l0.011,0.028l0.014,0.028l0.01,0.025l0.011,0.025
		l0.018,0.03l0.014,0.028l0.015,0.026l0.018,0.029l0.019,0.029l0.02,0.03l0.021,0.031l0.02,0.027l0.027,0.033l0.022,0.03l0.029,0.03
		l0.01,0.008l0.002,0.003l0.034,0.028l0.051,0.038l0.052,0.033l0.054,0.031l0.056,0.026l0.055,0.024l0.057,0.024l0.058,0.018
		l0.056,0.017l0.059,0.016l0.057,0.013l0.059,0.009l0.059,0.009l0.06,0.007l0.06,0.005l0.062,0.004l0.058,0.001l0.06-0.001
		l0.062-0.004l0.061-0.005l0.059-0.004l0.061-0.01l0.059-0.011l0.06-0.013l0.06-0.012l0.059-0.018l0.059-0.02l0.059-0.017
		l0.056-0.025l0.059-0.021l0.055-0.028l0.056-0.029l0.055-0.033l7.389-4.542l0.015,0.005l0.02,0.009l0.019,0.005l0.022,0.006
		l0.02,0.004l0.021,0.001l0.023,0.002h0.019h0.021l0.022-0.002l0.021-0.001l0.019-0.004l0.021-0.006l0.021-0.005l0.019-0.009
		l0.019-0.005l0.021-0.011l0.018-0.009l0.018-0.011l0.017-0.012l0.018-0.012l0,0l0.315,0.181l-9.458,6.08L160,52.889l-0.005-0.004
		l-0.032-0.026l-0.046-0.033l-0.049-0.032l-0.047-0.03l-0.051-0.026l-0.05-0.023l-0.052-0.023l-0.051-0.021l-0.054-0.02
		l-0.052-0.014l-0.054-0.014l-0.055-0.013l-0.052-0.009l-0.054-0.008l-0.055-0.006l-0.053-0.003h-0.054h-0.053l-0.053,0.003
		l-0.055,0.004l-0.053,0.007l-0.053,0.009l-0.052,0.011l-0.051,0.012l-0.051,0.014l-0.051,0.018l-0.051,0.016l-0.048,0.021
		l-0.05,0.023l-0.047,0.022l-0.047,0.024l-0.047,0.026L158.37,52.8l-0.009,0.007l-0.008,0.007l-0.009,0.009l-0.009,0.007
		l-0.008,0.009l-0.008,0.009l-0.005,0.009l-0.007,0.009l-0.006,0.01l-0.005,0.011l-0.006,0.009l-0.002,0.011l-0.007,0.01
		l-0.002,0.011l-0.004,0.011l-0.002,0.011l-0.002,0.012v0.011v0.011v0.021v0.012v0.012l0.001,0.01l0.003,0.013l0.004,0.009
		l0.002,0.013l0.004,0.01l0.005,0.012l0.006,0.01l0.006,0.01l0.005,0.011l0.007,0.009l0.008,0.011l0.015,0.016l0.009,0.008
		l0.007,0.007l0.01,0.008l0.008,0.007l0.01,0.006l0.009,0.005L158.4,53.2l0.01,0.005l0.009,0.004l0.011,0.003l0.013,0.002
		l0.009,0.004l0.012,0.001l0.01,0.002h0.01h0.012h0.01h0.011l0.012-0.002l0.01-0.001l0.012-0.002l0.011-0.004l0.011-0.003
		l0.011-0.004l0.02-0.01l0.012-0.005l0.03-0.021l0.031-0.017l0.032-0.016l0.033-0.016l0.035-0.013l0.034-0.012l0.033-0.011
		l0.037-0.011l0.035-0.008l0.037-0.007l0.036-0.008l0.037-0.003l0.037-0.004l0.037-0.002l0.038-0.002l0.038,0.002l0.038,0.002
		l0.036,0.005l0.037,0.004l0.037,0.007l0.036,0.009l0.036,0.009l0.035,0.01l0.036,0.015l0.035,0.014l0.034,0.014l0.035,0.019
		l0.033,0.015l0.032,0.021l0.031,0.021l0.032,0.022l0.026,0.021l0.004,0.003l0.01,0.007l1.504,1.113l-1.878,1.207v-2.019v-0.012
		l-0.003-0.013l-0.002-0.011l-0.002-0.012l-0.002-0.011l-0.004-0.01l-0.004-0.012l-0.005-0.01l-0.005-0.009l-0.004-0.01l-0.008-0.01
		l-0.005-0.009l-0.007-0.01l-0.009-0.007l-0.006-0.009l-0.008-0.007l-0.008-0.008l-0.009-0.007l-0.009-0.007l-0.009-0.007
		l-0.02-0.01l-0.01-0.004l-0.012-0.006l-0.01-0.003l-0.011-0.004l-0.01-0.002l-0.011-0.001l-0.011-0.002l-0.013-0.002h-0.012h-0.012
		l-0.011,0.002l-0.011,0.002l-0.013,0.001l-0.01,0.002l-0.012,0.004l-0.019,0.009l-0.012,0.004l-0.009,0.005l-0.011,0.005
		l-0.007,0.007l-0.009,0.007l-0.008,0.007l-0.009,0.008l-0.007,0.007l-0.01,0.009l-0.007,0.007l-0.005,0.01l-0.006,0.009
		l-0.007,0.01l-0.006,0.01l-0.004,0.009l-0.006,0.01l-0.007,0.021l-0.004,0.011l-0.002,0.012l-0.002,0.011l-0.001,0.013
		l-0.002,0.012v2.306l-2.586,1.662l0.008-0.004l-0.058,0.036l-0.056,0.04l-0.052,0.042l-0.051,0.045L156.077,57.736z
		 M156.185,76.847L156.185,76.847l0.002,0.002L156.185,76.847z M156.213,77.037h-0.004H156.213l0.003,0.002L156.213,77.037z
		 M161.228,78.656l-1.151,0.725l-0.014-0.008l-0.019-0.012l-0.021-0.016l-0.021-0.016l-0.023-0.018l-0.021-0.016l-0.021-0.012
		l-0.02-0.014l-0.02-0.008l-0.013-0.008l-0.276-0.168V61.593l0.004-0.046l0.006-0.045l0.005-0.049l0.011-0.047l0.01-0.049
		l0.01-0.049l0.014-0.048l0.017-0.051l0.018-0.049l0.019-0.051l0.02-0.049l0.044-0.098l0.023-0.049l0.027-0.049l0.025-0.047
		l0.026-0.047l0.029-0.047l0.03-0.044l0.029-0.045l0.031-0.044l0.031-0.041l0.032-0.04l0.032-0.04l0.031-0.037l0.034-0.038
		l0.032-0.035l0.034-0.033l0.033-0.031l0.033-0.031l0.023-0.018l0.904-0.569V78.656z M162.845,77.162l-0.774,0.484V59.311
		l-0.002-0.005v-0.019l-0.003-0.021l-0.003-0.019l-0.002-0.021l-0.004-0.021l-0.005-0.021l-0.008-0.019l-0.008-0.02l-0.008-0.019
		l-0.008-0.018l-0.011-0.018l-0.011-0.019l-0.011-0.018l-0.012-0.017l-0.014-0.017l-0.016-0.015l-0.016-0.016l-0.015-0.014
		l-0.018-0.014l-0.017-0.013l-0.018-0.012l-0.029-0.018l1.009-0.649V77.162z M164.381,75.666l-0.694,0.434V57.791l-0.003-0.022
		l-0.001-0.02l-0.004-0.022l-0.005-0.021l-0.006-0.02l-0.007-0.02l-0.008-0.022l-0.009-0.018l-0.008-0.019l-0.01-0.02l-0.012-0.018
		l-0.011-0.016l-0.015-0.018l-0.011-0.016l-0.016-0.016l-0.016-0.014l-0.015-0.014l-0.016-0.013l-0.017-0.012l-0.017-0.011
		l-0.018-0.011l-0.018-0.011l-0.018-0.008l-0.021-0.007l-0.007-0.004l0.977-0.627V75.666z M165.92,74.167l-0.696,0.434V56.317
		l-0.001-0.022v-0.022l-0.003-0.021l-0.007-0.021l-0.003-0.021l-0.005-0.021l-0.007-0.021l-0.007-0.02l-0.01-0.019l-0.009-0.02
		l-0.011-0.018l-0.011-0.018l-0.011-0.018l-0.015-0.015l-0.011-0.017l-0.015-0.016l-0.017-0.015l-0.013-0.013l-0.032-0.024
		l-0.019-0.013l-0.017-0.011l-0.019-0.008l-0.021-0.009l-0.005-0.004l-0.017-0.008l0.977-0.628V74.167z M166.03,54.151l-0.02-0.006
		l-0.022-0.002l-0.02-0.003l-0.02-0.002h-0.021l-0.021,0.002l-0.021,0.002l-0.021,0.003l-0.018,0.004l-0.021,0.006l-0.02,0.005
		l-0.02,0.007l-0.019,0.007l-0.036,0.02l-0.017,0.01l-0.018,0.011l-0.017,0.012l-0.016,0.015l-0.017,0.012l-0.014,0.016
		l-0.014,0.015l-0.015,0.017l-0.013,0.016l-0.013,0.02l-0.01,0.018l-0.011,0.02l-0.009,0.021l-0.01,0.019l-0.007,0.021l-0.006,0.021
		l-0.007,0.021l-0.002,0.021l-0.005,0.022l-0.003,0.021v0.021v0.021v0.021l0.005,0.042l0.005,0.019l0.004,0.021l0.007,0.019
		l0.006,0.021l0.007,0.019l0.01,0.02l0.008,0.018l0.013,0.019l0.009,0.018l0.012,0.016l0.013,0.016l0.014,0.018l0.014,0.016
		l0.015,0.014l0.009,0.008l-1.192,0.766l-0.004-0.002l-0.021-0.005l-0.021-0.009l-0.019-0.005l-0.021-0.002l-0.019-0.003
		l-0.022-0.004h-0.019h-0.021h-0.021l-0.021,0.004l-0.021,0.003l-0.02,0.004l-0.019,0.005l-0.02,0.007l-0.019,0.007l-0.019,0.009
		l-0.02,0.009l-0.016,0.011l-0.02,0.009l-0.016,0.012l-0.018,0.013l-0.015,0.014l-0.016,0.014l-0.016,0.014L164,55.785l-0.024,0.033
		l-0.013,0.019l-0.011,0.02l-0.011,0.019l-0.007,0.02l-0.011,0.021l-0.005,0.021l-0.008,0.021l-0.005,0.021l-0.003,0.021
		l-0.002,0.021l-0.003,0.021v0.063l0.003,0.021l0.005,0.02l0.003,0.021l0.005,0.02l0.006,0.021l0.007,0.021l0.008,0.017l0.007,0.02
		l0.021,0.035l0.012,0.019l0.012,0.016l0.012,0.019l0.014,0.013l0.015,0.018l0.016,0.013l0.016,0.014l0.018,0.014l0.008,0.006
		l-1.24,0.796l-0.013-0.002l-0.022-0.002l-0.019-0.002h-0.021l-0.021,0.002l-0.021,0.002l-0.019,0.004l-0.021,0.005l-0.02,0.004
		l-0.019,0.007l-0.019,0.006l-0.019,0.008l-0.02,0.011l-0.016,0.01l-0.019,0.009l-0.018,0.012l-0.017,0.013l-0.015,0.014
		l-0.015,0.014l-0.014,0.015l-0.016,0.014l-0.014,0.018l-0.012,0.016l-0.011,0.02l-0.012,0.017l-0.01,0.02l-0.009,0.021l-0.007,0.02
		l-0.008,0.021l-0.006,0.023l-0.008,0.021l-0.003,0.02l-0.004,0.022l-0.001,0.021v0.021v0.021l0.001,0.021l0.002,0.023l0.002,0.019
		l0.006,0.023l0.005,0.017l0.006,0.021l0.008,0.019l0.007,0.02l0.009,0.02l0.007,0.017l0.012,0.02l0.013,0.016l0.009,0.018
		l0.015,0.018l0.014,0.014l0.014,0.014l0,0l-1.092,0.704l-0.014-0.006l-0.021-0.007l-0.021-0.005l-0.021-0.005l-0.019-0.004
		l-0.021-0.003l-0.02-0.002h-0.02h-0.022l-0.02,0.002l-0.02,0.003l-0.019,0.005l-0.021,0.004l-0.02,0.005l-0.038,0.016l-0.019,0.008
		l-0.018,0.01l-0.019,0.011l-0.018,0.009l-0.031,0.024l-0.017,0.016l-0.016,0.012l-0.015,0.016l-0.013,0.018l-0.012,0.018
		l-0.014,0.018l-0.013,0.02l-0.011,0.021l-0.009,0.018l-0.009,0.021l-0.008,0.021l-0.005,0.021l-0.006,0.019l-0.006,0.02
		l-0.002,0.021l-0.003,0.023l-0.002,0.021v0.021v0.019l0.002,0.023l0.003,0.019l0.004,0.021l0.004,0.021l0.006,0.019l0.008,0.021
		l0.005,0.019l0.009,0.018l0.009,0.02l0.011,0.02l0.01,0.017l0.013,0.018l0.012,0.018h0.001l-0.822,0.516l-0.004,0.004l-0.012,0.005
		l-0.009,0.007l-0.008,0.007l-0.01,0.005l-0.043,0.038l-0.044,0.037l-0.042,0.042l-0.041,0.042l-0.041,0.043l-0.041,0.044
		l-0.039,0.047l-0.041,0.049l-0.038,0.047l-0.036,0.05l-0.036,0.053l-0.038,0.055l-0.034,0.052l-0.033,0.058l-0.032,0.054
		l-0.032,0.058l-0.03,0.058l-0.03,0.059l-0.028,0.06l-0.024,0.061l-0.025,0.06l-0.023,0.063l-0.021,0.063l-0.02,0.062l-0.018,0.063
		l-0.017,0.064l-0.013,0.063l-0.011,0.064l-0.009,0.063l-0.008,0.067l-0.003,0.064l-0.002,0.04v0.012V78.82l-2.909-1.76
		l-0.006-0.014l-0.003-0.01l-0.008-0.01l-0.002-0.014L156.227,77l-0.005-0.016l-0.006-0.014l-0.004-0.018l-0.009-0.027l-0.004-0.014
		l-0.003-0.01l-0.003-0.016V71.2v-0.024l-0.002-0.025l-0.003-0.021l-0.004-0.021l-0.005-0.022l-0.008-0.024l-0.005-0.021V59.393
		l-0.001-0.025l0.002-0.029l0.004-0.032l0.007-0.034l0.006-0.037l0.009-0.038l0.011-0.042l0.012-0.041l0.014-0.042l0.015-0.044
		l0.017-0.043l0.02-0.044l0.021-0.047l0.019-0.044l0.022-0.043l0.022-0.046l0.026-0.043l0.023-0.042l0.025-0.04l0.026-0.042
		l0.026-0.04l0.028-0.037l0.026-0.034l0.028-0.033l0.026-0.033l0.026-0.028l0.028-0.029l0.025-0.022l0.025-0.022l0.021-0.018
		l0.021-0.016l0.021-0.012l0.006-0.004l16.602-10.671l1.21,0.746l-7.152,4.538l-0.01,0.007l-0.01,0.007l-0.007,0.006l-0.007,0.001
		l-0.021,0.004l-0.019,0.005l-0.02,0.005l-0.019,0.008l-0.02,0.007l-0.036,0.02l-0.019,0.01l-0.015,0.011l-0.02,0.013l-0.014,0.012
		l-0.014,0.014l-0.017,0.015l-0.014,0.015l-0.015,0.018l-0.011,0.017l-0.013,0.017l-0.012,0.02l-0.011,0.018l-0.009,0.021
		l-0.01,0.021l-0.007,0.021l-0.006,0.021l-0.005,0.021l-0.004,0.021l-0.004,0.022l-0.001,0.02l-0.002,0.022v0.021v0.021l0.002,0.021
		l0.005,0.02l0.002,0.022l0.004,0.019l0.007,0.021l0.006,0.021l0.002,0.005l-1.043,0.673L166.03,54.151z M167.456,72.287
		l-0.007,0.016l-0.004,0.02l-0.005,0.023l-0.009,0.045l-0.001,0.02l-0.003,0.021v0.023l0.001,0.021l0.003,0.021l0.001,0.02
		l0.006,0.023l0.006,0.027l0.005,0.016l0.007,0.02v0.137l-0.697,0.4V54.715l-0.001-0.022l-0.002-0.021l-0.003-0.021l-0.006-0.021
		l-0.006-0.021l-0.007-0.02l-0.007-0.021l-0.011-0.02l-0.008-0.02l-0.01-0.019l-0.012-0.016l-0.011-0.018l-0.013-0.016l-0.013-0.016
		l-0.015-0.016l-0.015-0.014l-0.016-0.015l-0.016-0.012l-0.016-0.012l-0.019-0.013l-0.006-0.004l0.903-0.582h0.002V72.287z
		 M182.792,57.582l-0.007,0.005l-0.014,0.016l-0.017,0.017l-0.012,0.017l-0.011,0.018l-0.013,0.018l-0.009,0.017l-0.01,0.021
		l-0.009,0.019l-0.009,0.02l-0.006,0.019l-0.003,0.021l-0.006,0.019l-0.006,0.021l-0.002,0.021l-0.003,0.019v0.021v0.022v0.02
		l0.004,0.021l0.001,0.021l0.006,0.021l0.006,0.02l0.004,0.021l0.008,0.021l0.008,0.021l0.01,0.019l0.009,0.021l0.012,0.017
		l0.012,0.02l0.014,0.018l0.014,0.016l0.014,0.016l0.015,0.016v0.563l-0.613,1.12l-4.979,3.17l-0.005,0.003l-0.019,0.012
		l-0.019,0.012l-0.017,0.014l-0.018,0.014l-0.031,0.033l-0.015,0.016l-0.015,0.018l-0.013,0.019l-0.013,0.021l-0.013,0.019
		l-2.208,4.138l-6.521,4.244V53.489l-0.001-0.021v-0.023l-0.003-0.021l-0.005-0.021l-0.005-0.021l-0.005-0.021l-0.007-0.02
		l-0.008-0.021l-0.009-0.02l-0.01-0.017l-0.009-0.02l-0.012-0.018l-0.012-0.018l-0.014-0.016l-0.01-0.016l-0.016-0.014l-0.016-0.017
		l-0.014-0.012l-0.017-0.014l-0.015-0.011l-0.019-0.012l-0.018-0.011l-0.019-0.009l-0.004-0.003l-0.023-0.024l-0.009-0.007
		l-0.008-0.009l-0.005-0.004l7.013-4.448l0.171,0.104l0.01,0.018l0.012,0.019l0.011,0.019l0.016,0.017l0.014,0.016l0.015,0.017
		l0.017,0.012l0.015,0.016l0.016,0.013l0.018,0.012l0.018,0.01l0.018,0.01l0.02,0.009l0.017,0.009l0.019,0.007l0.021,0.007
		l0.021,0.003l0.019,0.005l0.021,0.004l0.02,0.002l0.019,0.002h0.01l1.652,1.021l0.017,0.01l0.021,0.011l0.021,0.007l0.019,0.01
		l0.021,0.007l0.019,0.005l0.022,0.003l0.019,0.004l0.021,0.003h0.021l0.021,0.002l0.019-0.002l0.021-0.001l0.02-0.002l0.02-0.004
		l0.021-0.005l0.018-0.005l0.02-0.005l0.019-0.01l0.019-0.009l0.018-0.009l0.021-0.01l0.016-0.013l0.017-0.011l0.019-0.014
		l0.013-0.014l0.016-0.014l0.028-0.029l0.014-0.02l0.012-0.018l0.013-0.02l0.01-0.017l0.01-0.023l0.009-0.019l0.006-0.021
		l0.008-0.02l0.006-0.021l0.004-0.021l0.003-0.019l0.004-0.023l0.001-0.021v-0.016l4.48-2.852l0.474,0.284V57.582z M185.408,55.55
		l-0.003,0.029v0.024l-0.001,0.025l-0.004,0.025v0.024l-0.001,0.019l-0.003,0.022l-0.002,0.02l-0.002,0.019l-0.003,0.019
		l-0.003,0.016l-0.004,0.014l-0.003,0.013l-0.003,0.012l-0.002,0.009l-0.006,0.007l-0.003,0.007v0.005l-0.004,0.006l-0.004,0.005
		h0.003l-0.005,0.004l0.002-0.002l-0.006,0.005l0,0l-0.021,0.012l-0.006,0.006l-1.638,1.087v-3.933l1.717-0.969v3.354l0.003,0.031
		V55.55z M184.194,47.946l0.002,0.021l0.003,0.02l0.006,0.022l0.004,0.02l0.005,0.021l0.006,0.021l0.008,0.021l0.009,0.021
		l0.011,0.019l0.011,0.02l0.012,0.019l0.006,0.009v2.51l0.002,0.021l0.002,0.022l0.004,0.021l0.003,0.022l0.008,0.02l0.005,0.021
		l0.009,0.02l0.009,0.019l0.008,0.02l0.01,0.018l0.013,0.019l0.012,0.016l0.013,0.016l0.012,0.017l0.017,0.016l0.014,0.013
		l0.014,0.015l0.018,0.013l0.016,0.012l0.018,0.012l0.016,0.011l0.006,0.004l0.884,0.519l-1.694,0.954v-5.768l0.587-0.384v1.295
		l-0.005,0.007l-0.01,0.016l-0.012,0.02l-0.009,0.019l-0.01,0.018l-0.007,0.02l-0.009,0.021l-0.006,0.02l-0.004,0.021l-0.003,0.02
		l-0.005,0.021l-0.001,0.021l-0.002,0.021v0.021V47.946z M190.178,50.179l-3.929,2.6v-1.449l-0.002-0.003v-0.009v-0.021
		l-0.001-0.021l-0.005-0.021l-0.003-0.021l-0.005-0.02l-0.006-0.021l-0.006-0.019l-0.01-0.02l-0.008-0.019l-0.009-0.018l-0.009-0.02
		l-0.013-0.016l-0.012-0.02l-0.011-0.015l-0.029-0.032l-0.017-0.014l-0.016-0.014l-0.017-0.013l-0.019-0.014l-0.02-0.01
		l-0.919-0.542v-0.889l5.062-3.151V50.179z M189.157,45.511l0.803,0.458l-4.844,3.018v-0.878L189.157,45.511z M183.082,46.129
		l-3.67-2.208l-0.009-0.057l-0.009-0.057l-0.013-0.056l-0.012-0.055l-0.014-0.058l-0.013-0.058l-0.014-0.056l-0.016-0.058
		l-0.016-0.056l-0.016-0.054l-0.019-0.059l-0.018-0.055l-0.018-0.055l-0.021-0.056l-0.021-0.055l-0.021-0.055l-0.021-0.054
		l-0.019-0.054l-0.024-0.054l-0.024-0.055l-0.022-0.053l-0.025-0.051l-0.024-0.053l-0.015-0.028l-0.028-0.046l-0.028-0.045
		l-0.027-0.044l-0.028-0.045l-0.033-0.045l-0.03-0.044l-0.033-0.044l-0.03-0.041l-0.064-0.084l-0.036-0.042l-0.035-0.04
		l-0.035-0.039l-0.037-0.042l-0.035-0.037l-0.037-0.038l-0.036-0.037l-0.036-0.037l-0.038-0.037l-0.037-0.032l-0.038-0.035
		l-0.038-0.031l-0.039-0.034l-0.038-0.03l-0.04-0.03l-0.038-0.028l-0.043-0.03l-0.038-0.027l-0.039-0.025l-0.041-0.023l-0.044-0.024
		l-0.021-0.013l0,0l-1.176-0.685l5.39-3.309l0.018-0.009l0.01-0.01l0.012-0.006l0.013-0.007l0.01-0.007l0.01-0.003l0.007-0.005
		l0.012-0.005l0.005-0.002l0.011-0.001l0.009-0.003l0.005-0.003h0.008h0.009l0.006-0.002h0.009h0.007h0.01h0.011l0.009,0.002h0.012
		l0.01,0.002l0.014,0.004l0.013,0.003l0.018,0.004l0.015,0.004l0.015,0.007l0.02,0.006l0.018,0.007l0.022,0.008l0.021,0.012
		l0.02,0.01l0.019,0.009l1.919,1.068l0.016,0.012l0.019,0.014l0.019,0.015l0.021,0.016l0.018,0.015l0.02,0.019l0.022,0.019
		l0.019,0.02l0.022,0.019l0.022,0.021l0.021,0.021l0.021,0.021l0.021,0.022l0.021,0.022l0.02,0.021l0.021,0.023l0.021,0.023
		l0.02,0.022l0.019,0.024l0.021,0.025l0.019,0.025l0.017,0.021l0.02,0.025l0.018,0.023l0.011,0.025l0.019,0.023l0.015,0.023
		l0.013,0.023l0.012,0.024l0.012,0.021l0.014,0.022l0.014,0.029l0.024,0.039l0.021,0.038l0.023,0.039l0.021,0.038l0.021,0.036
		l0.021,0.037l0.021,0.037l0.02,0.035l0.019,0.037l0.02,0.035l0.021,0.037l0.018,0.035l0.018,0.033l0.017,0.035l0.014,0.033
		l0.016,0.031l0.015,0.034l0.015,0.032l0.01,0.031l0.013,0.03l0.008,0.029l0.01,0.029l0.011,0.03l0.007,0.028l0.007,0.028
		l0.006,0.025l0.002,0.027l0.005,0.025l0.005,0.024l0.001,0.024l0.003,0.023l-0.003,0.024v4.338L183.082,46.129z M185.354,55.874
		l0.003-0.002l0,0L185.354,55.874z"/>
</g>
</svg>
